<?xml version="1.0" encoding="utf-8" standalone="no"?>
<!DOCTYPE svg PUBLIC "-//W3C//DTD SVG 1.1//EN"
  "http://www.w3.org/Graphics/SVG/1.1/DTD/svg11.dtd">
<svg xmlns:xlink="http://www.w3.org/1999/xlink" width="460.8pt" height="345.6pt" viewBox="0 0 460.8 345.6" xmlns="http://www.w3.org/2000/svg" version="1.1">
 <metadata>
  <rdf:RDF xmlns:dc="http://purl.org/dc/elements/1.1/" xmlns:cc="http://creativecommons.org/ns#" xmlns:rdf="http://www.w3.org/1999/02/22-rdf-syntax-ns#">
   <cc:Work>
    <dc:type rdf:resource="http://purl.org/dc/dcmitype/StillImage"/>
    <dc:date>2024-03-29T17:25:47.607199</dc:date>
    <dc:format>image/svg+xml</dc:format>
    <dc:creator>
     <cc:Agent>
      <dc:title>Matplotlib v3.8.3, https://matplotlib.org/</dc:title>
     </cc:Agent>
    </dc:creator>
   </cc:Work>
  </rdf:RDF>
 </metadata>
 <defs>
  <style type="text/css">*{stroke-linejoin: round; stroke-linecap: butt}</style>
 </defs>
 <g id="figure_1">
  <g id="patch_1">
   <path d="M 0 345.6 
L 460.8 345.6 
L 460.8 0 
L 0 0 
z
" style="fill: #ffffff"/>
  </g>
  <g id="axes_1">
   <g id="patch_2">
    <path d="M 57.6 307.584 
L 414.72 307.584 
L 414.72 41.472 
L 57.6 41.472 
z
" style="fill: #ffffff"/>
   </g>
   <g id="matplotlib.axis_1">
    <g id="xtick_1">
     <g id="line2d_1">
      <defs>
       <path id="m82a84f5d69" d="M 0 0 
L 0 3.5 
" style="stroke: #000000; stroke-width: 0.8"/>
      </defs>
      <g>
       <use xlink:href="#m82a84f5d69" x="108.972086" y="307.584" style="stroke: #000000; stroke-width: 0.8"/>
      </g>
     </g>
     <g id="text_1">
      <!-- 0.5 -->
      <g transform="translate(101.020523 322.182437) scale(0.1 -0.1)">
       <defs>
        <path id="DejaVuSans-30" d="M 2034 4250 
Q 1547 4250 1301 3770 
Q 1056 3291 1056 2328 
Q 1056 1369 1301 889 
Q 1547 409 2034 409 
Q 2525 409 2770 889 
Q 3016 1369 3016 2328 
Q 3016 3291 2770 3770 
Q 2525 4250 2034 4250 
z
M 2034 4750 
Q 2819 4750 3233 4129 
Q 3647 3509 3647 2328 
Q 3647 1150 3233 529 
Q 2819 -91 2034 -91 
Q 1250 -91 836 529 
Q 422 1150 422 2328 
Q 422 3509 836 4129 
Q 1250 4750 2034 4750 
z
" transform="scale(0.015625)"/>
        <path id="DejaVuSans-2e" d="M 684 794 
L 1344 794 
L 1344 0 
L 684 0 
L 684 794 
z
" transform="scale(0.015625)"/>
        <path id="DejaVuSans-35" d="M 691 4666 
L 3169 4666 
L 3169 4134 
L 1269 4134 
L 1269 2991 
Q 1406 3038 1543 3061 
Q 1681 3084 1819 3084 
Q 2600 3084 3056 2656 
Q 3513 2228 3513 1497 
Q 3513 744 3044 326 
Q 2575 -91 1722 -91 
Q 1428 -91 1123 -41 
Q 819 9 494 109 
L 494 744 
Q 775 591 1075 516 
Q 1375 441 1709 441 
Q 2250 441 2565 725 
Q 2881 1009 2881 1497 
Q 2881 1984 2565 2268 
Q 2250 2553 1709 2553 
Q 1456 2553 1204 2497 
Q 953 2441 691 2322 
L 691 4666 
z
" transform="scale(0.015625)"/>
       </defs>
       <use xlink:href="#DejaVuSans-30"/>
       <use xlink:href="#DejaVuSans-2e" x="63.623047"/>
       <use xlink:href="#DejaVuSans-35" x="95.410156"/>
      </g>
     </g>
    </g>
    <g id="xtick_2">
     <g id="line2d_2">
      <g>
       <use xlink:href="#m82a84f5d69" x="167.537684" y="307.584" style="stroke: #000000; stroke-width: 0.8"/>
      </g>
     </g>
     <g id="text_2">
      <!-- 1.0 -->
      <g transform="translate(159.586121 322.182437) scale(0.1 -0.1)">
       <defs>
        <path id="DejaVuSans-31" d="M 794 531 
L 1825 531 
L 1825 4091 
L 703 3866 
L 703 4441 
L 1819 4666 
L 2450 4666 
L 2450 531 
L 3481 531 
L 3481 0 
L 794 0 
L 794 531 
z
" transform="scale(0.015625)"/>
       </defs>
       <use xlink:href="#DejaVuSans-31"/>
       <use xlink:href="#DejaVuSans-2e" x="63.623047"/>
       <use xlink:href="#DejaVuSans-30" x="95.410156"/>
      </g>
     </g>
    </g>
    <g id="xtick_3">
     <g id="line2d_3">
      <g>
       <use xlink:href="#m82a84f5d69" x="226.103281" y="307.584" style="stroke: #000000; stroke-width: 0.8"/>
      </g>
     </g>
     <g id="text_3">
      <!-- 1.5 -->
      <g transform="translate(218.151719 322.182437) scale(0.1 -0.1)">
       <use xlink:href="#DejaVuSans-31"/>
       <use xlink:href="#DejaVuSans-2e" x="63.623047"/>
       <use xlink:href="#DejaVuSans-35" x="95.410156"/>
      </g>
     </g>
    </g>
    <g id="xtick_4">
     <g id="line2d_4">
      <g>
       <use xlink:href="#m82a84f5d69" x="284.668879" y="307.584" style="stroke: #000000; stroke-width: 0.8"/>
      </g>
     </g>
     <g id="text_4">
      <!-- 2.0 -->
      <g transform="translate(276.717316 322.182437) scale(0.1 -0.1)">
       <defs>
        <path id="DejaVuSans-32" d="M 1228 531 
L 3431 531 
L 3431 0 
L 469 0 
L 469 531 
Q 828 903 1448 1529 
Q 2069 2156 2228 2338 
Q 2531 2678 2651 2914 
Q 2772 3150 2772 3378 
Q 2772 3750 2511 3984 
Q 2250 4219 1831 4219 
Q 1534 4219 1204 4116 
Q 875 4013 500 3803 
L 500 4441 
Q 881 4594 1212 4672 
Q 1544 4750 1819 4750 
Q 2544 4750 2975 4387 
Q 3406 4025 3406 3419 
Q 3406 3131 3298 2873 
Q 3191 2616 2906 2266 
Q 2828 2175 2409 1742 
Q 1991 1309 1228 531 
z
" transform="scale(0.015625)"/>
       </defs>
       <use xlink:href="#DejaVuSans-32"/>
       <use xlink:href="#DejaVuSans-2e" x="63.623047"/>
       <use xlink:href="#DejaVuSans-30" x="95.410156"/>
      </g>
     </g>
    </g>
    <g id="xtick_5">
     <g id="line2d_5">
      <g>
       <use xlink:href="#m82a84f5d69" x="343.234477" y="307.584" style="stroke: #000000; stroke-width: 0.8"/>
      </g>
     </g>
     <g id="text_5">
      <!-- 2.5 -->
      <g transform="translate(335.282914 322.182437) scale(0.1 -0.1)">
       <use xlink:href="#DejaVuSans-32"/>
       <use xlink:href="#DejaVuSans-2e" x="63.623047"/>
       <use xlink:href="#DejaVuSans-35" x="95.410156"/>
      </g>
     </g>
    </g>
    <g id="xtick_6">
     <g id="line2d_6">
      <g>
       <use xlink:href="#m82a84f5d69" x="401.800074" y="307.584" style="stroke: #000000; stroke-width: 0.8"/>
      </g>
     </g>
     <g id="text_6">
      <!-- 3.0 -->
      <g transform="translate(393.848512 322.182437) scale(0.1 -0.1)">
       <defs>
        <path id="DejaVuSans-33" d="M 2597 2516 
Q 3050 2419 3304 2112 
Q 3559 1806 3559 1356 
Q 3559 666 3084 287 
Q 2609 -91 1734 -91 
Q 1441 -91 1130 -33 
Q 819 25 488 141 
L 488 750 
Q 750 597 1062 519 
Q 1375 441 1716 441 
Q 2309 441 2620 675 
Q 2931 909 2931 1356 
Q 2931 1769 2642 2001 
Q 2353 2234 1838 2234 
L 1294 2234 
L 1294 2753 
L 1863 2753 
Q 2328 2753 2575 2939 
Q 2822 3125 2822 3475 
Q 2822 3834 2567 4026 
Q 2313 4219 1838 4219 
Q 1578 4219 1281 4162 
Q 984 4106 628 3988 
L 628 4550 
Q 988 4650 1302 4700 
Q 1616 4750 1894 4750 
Q 2613 4750 3031 4423 
Q 3450 4097 3450 3541 
Q 3450 3153 3228 2886 
Q 3006 2619 2597 2516 
z
" transform="scale(0.015625)"/>
       </defs>
       <use xlink:href="#DejaVuSans-33"/>
       <use xlink:href="#DejaVuSans-2e" x="63.623047"/>
       <use xlink:href="#DejaVuSans-30" x="95.410156"/>
      </g>
     </g>
    </g>
   </g>
   <g id="matplotlib.axis_2">
    <g id="ytick_1">
     <g id="line2d_7">
      <defs>
       <path id="mbf6d6624c7" d="M 0 0 
L -3.5 0 
" style="stroke: #000000; stroke-width: 0.8"/>
      </defs>
      <g>
       <use xlink:href="#mbf6d6624c7" x="57.6" y="307.584" style="stroke: #000000; stroke-width: 0.8"/>
      </g>
     </g>
     <g id="text_7">
      <!-- 0.00 -->
      <g transform="translate(28.334375 311.383219) scale(0.1 -0.1)">
       <use xlink:href="#DejaVuSans-30"/>
       <use xlink:href="#DejaVuSans-2e" x="63.623047"/>
       <use xlink:href="#DejaVuSans-30" x="95.410156"/>
       <use xlink:href="#DejaVuSans-30" x="159.033203"/>
      </g>
     </g>
    </g>
    <g id="ytick_2">
     <g id="line2d_8">
      <g>
       <use xlink:href="#mbf6d6624c7" x="57.6" y="263.232" style="stroke: #000000; stroke-width: 0.8"/>
      </g>
     </g>
     <g id="text_8">
      <!-- 0.05 -->
      <g transform="translate(28.334375 267.031219) scale(0.1 -0.1)">
       <use xlink:href="#DejaVuSans-30"/>
       <use xlink:href="#DejaVuSans-2e" x="63.623047"/>
       <use xlink:href="#DejaVuSans-30" x="95.410156"/>
       <use xlink:href="#DejaVuSans-35" x="159.033203"/>
      </g>
     </g>
    </g>
    <g id="ytick_3">
     <g id="line2d_9">
      <g>
       <use xlink:href="#mbf6d6624c7" x="57.6" y="218.88" style="stroke: #000000; stroke-width: 0.8"/>
      </g>
     </g>
     <g id="text_9">
      <!-- 0.10 -->
      <g transform="translate(28.334375 222.679219) scale(0.1 -0.1)">
       <use xlink:href="#DejaVuSans-30"/>
       <use xlink:href="#DejaVuSans-2e" x="63.623047"/>
       <use xlink:href="#DejaVuSans-31" x="95.410156"/>
       <use xlink:href="#DejaVuSans-30" x="159.033203"/>
      </g>
     </g>
    </g>
    <g id="ytick_4">
     <g id="line2d_10">
      <g>
       <use xlink:href="#mbf6d6624c7" x="57.6" y="174.528" style="stroke: #000000; stroke-width: 0.8"/>
      </g>
     </g>
     <g id="text_10">
      <!-- 0.15 -->
      <g transform="translate(28.334375 178.327219) scale(0.1 -0.1)">
       <use xlink:href="#DejaVuSans-30"/>
       <use xlink:href="#DejaVuSans-2e" x="63.623047"/>
       <use xlink:href="#DejaVuSans-31" x="95.410156"/>
       <use xlink:href="#DejaVuSans-35" x="159.033203"/>
      </g>
     </g>
    </g>
    <g id="ytick_5">
     <g id="line2d_11">
      <g>
       <use xlink:href="#mbf6d6624c7" x="57.6" y="130.176" style="stroke: #000000; stroke-width: 0.8"/>
      </g>
     </g>
     <g id="text_11">
      <!-- 0.20 -->
      <g transform="translate(28.334375 133.975219) scale(0.1 -0.1)">
       <use xlink:href="#DejaVuSans-30"/>
       <use xlink:href="#DejaVuSans-2e" x="63.623047"/>
       <use xlink:href="#DejaVuSans-32" x="95.410156"/>
       <use xlink:href="#DejaVuSans-30" x="159.033203"/>
      </g>
     </g>
    </g>
    <g id="ytick_6">
     <g id="line2d_12">
      <g>
       <use xlink:href="#mbf6d6624c7" x="57.6" y="85.824" style="stroke: #000000; stroke-width: 0.8"/>
      </g>
     </g>
     <g id="text_12">
      <!-- 0.25 -->
      <g transform="translate(28.334375 89.623219) scale(0.1 -0.1)">
       <use xlink:href="#DejaVuSans-30"/>
       <use xlink:href="#DejaVuSans-2e" x="63.623047"/>
       <use xlink:href="#DejaVuSans-32" x="95.410156"/>
       <use xlink:href="#DejaVuSans-35" x="159.033203"/>
      </g>
     </g>
    </g>
    <g id="ytick_7">
     <g id="line2d_13">
      <g>
       <use xlink:href="#mbf6d6624c7" x="57.6" y="41.472" style="stroke: #000000; stroke-width: 0.8"/>
      </g>
     </g>
     <g id="text_13">
      <!-- 0.30 -->
      <g transform="translate(28.334375 45.271219) scale(0.1 -0.1)">
       <use xlink:href="#DejaVuSans-30"/>
       <use xlink:href="#DejaVuSans-2e" x="63.623047"/>
       <use xlink:href="#DejaVuSans-33" x="95.410156"/>
       <use xlink:href="#DejaVuSans-30" x="159.033203"/>
      </g>
     </g>
    </g>
   </g>
   <g id="line2d_14">
    <path d="M 73.832727 216.522803 
L 77.145529 230.710169 
L 80.45833 233.968337 
L 83.771132 238.024102 
L 87.083933 239.084826 
L 90.396735 248.964657 
L 93.709536 249.786979 
L 97.022338 253.040041 
L 100.335139 254.546192 
L 103.647941 256.114923 
L 106.960742 261.049731 
L 110.273544 258.680695 
L 113.586345 262.563486 
L 116.899147 264.015119 
L 120.211948 262.667083 
L 123.52475 262.960848 
L 126.837551 264.206918 
L 130.150353 265.084608 
L 133.463154 263.32925 
L 136.775955 265.755848 
L 140.088757 265.473653 
L 143.401558 265.822121 
L 146.71436 267.976206 
L 150.027161 268.607473 
L 153.339963 267.815656 
L 156.652764 267.348095 
L 159.965566 267.143544 
L 163.278367 268.117895 
L 166.591169 268.109216 
L 169.90397 266.862192 
L 173.216772 266.333598 
L 176.529573 266.783822 
L 179.842375 267.637937 
L 183.155176 266.223775 
L 186.467978 267.327455 
L 189.780779 267.327964 
L 193.093581 266.540887 
L 196.406382 265.042763 
L 199.719184 265.280761 
L 203.031985 264.754213 
L 206.344787 262.316156 
L 209.657588 266.466765 
L 212.97039 263.975306 
L 216.283191 262.502546 
L 219.595993 262.550117 
L 222.908794 261.782653 
L 226.221596 262.334489 
L 229.534397 262.256046 
L 232.847199 262.97878 
L 236.16 262.232301 
L 239.472801 261.181546 
L 242.785603 262.582235 
L 246.098404 261.017704 
L 249.411206 257.614625 
L 252.724007 259.369046 
L 256.036809 257.648599 
L 259.34961 259.440372 
L 262.662412 258.046179 
L 265.975213 256.246896 
L 269.288015 257.025909 
L 272.600816 254.423024 
L 275.913618 255.222413 
L 279.226419 253.26879 
L 282.539221 254.857481 
L 285.852022 253.26783 
L 289.164824 248.883873 
L 292.477625 251.127154 
L 295.790427 250.289251 
L 299.103228 249.461405 
L 302.41603 247.518752 
L 305.728831 245.734086 
L 309.041633 246.750748 
L 312.354434 244.073264 
L 315.667236 243.146309 
L 318.980037 242.146303 
L 322.292839 239.214717 
L 325.60564 241.494417 
L 328.918442 232.804959 
L 332.231243 236.123809 
L 335.544045 238.465142 
L 338.856846 237.748741 
L 342.169647 232.695182 
L 345.482449 233.395753 
L 348.79525 229.036145 
L 352.108052 227.714493 
L 355.420853 230.008217 
L 358.733655 227.342436 
L 362.046456 228.402397 
L 365.359258 217.658753 
L 368.672059 221.051786 
L 371.984861 222.179274 
L 375.297662 216.981346 
L 378.610464 214.603594 
L 381.923265 214.628193 
L 385.236067 214.939965 
L 388.548868 209.543101 
L 391.86167 201.59683 
L 395.174471 197.722823 
L 398.487273 195.50962 
" clip-path="url(#pb04400cab5)" style="fill: none; stroke: #1f77b4; stroke-width: 1.5; stroke-linecap: square"/>
   </g>
   <g id="line2d_15">
    <path d="M 73.832727 145.471494 
L 77.145529 175.899681 
L 80.45833 174.393163 
L 83.771132 190.341805 
L 87.083933 200.810483 
L 90.396735 207.792065 
L 93.709536 210.179569 
L 97.022338 219.514014 
L 100.335139 223.022094 
L 103.647941 226.925091 
L 106.960742 229.135492 
L 110.273544 231.524682 
L 113.586345 237.319687 
L 116.899147 229.929092 
L 120.211948 240.463929 
L 123.52475 243.828921 
L 126.837551 241.334603 
L 130.150353 243.029609 
L 133.463154 246.58613 
L 136.775955 247.33412 
L 140.088757 249.595002 
L 143.401558 248.240144 
L 146.71436 250.167599 
L 150.027161 249.829906 
L 153.339963 245.312965 
L 156.652764 246.647856 
L 159.965566 252.139086 
L 163.278367 251.307379 
L 166.591169 249.792826 
L 169.90397 251.586069 
L 173.216772 251.21262 
L 176.529573 251.864413 
L 179.842375 250.926399 
L 183.155176 249.94354 
L 186.467978 252.061144 
L 189.780779 247.973996 
L 193.093581 252.944326 
L 196.406382 251.997806 
L 199.719184 251.140947 
L 203.031985 249.070445 
L 206.344787 246.514112 
L 209.657588 250.311299 
L 212.97039 248.993965 
L 216.283191 250.27652 
L 219.595993 251.53499 
L 222.908794 250.235542 
L 226.221596 245.509682 
L 229.534397 245.390967 
L 232.847199 247.129774 
L 236.16 245.824466 
L 239.472801 242.49043 
L 242.785603 248.205197 
L 246.098404 243.243376 
L 249.411206 244.138875 
L 252.724007 245.516716 
L 256.036809 240.746292 
L 259.34961 245.623841 
L 262.662412 239.923969 
L 265.975213 240.49924 
L 269.288015 238.73232 
L 272.600816 239.441615 
L 275.913618 238.199017 
L 279.226419 234.703593 
L 282.539221 238.28156 
L 285.852022 233.316544 
L 289.164824 237.944616 
L 292.477625 234.168881 
L 295.790427 234.443422 
L 299.103228 233.358286 
L 302.41603 229.942016 
L 305.728831 229.228463 
L 309.041633 230.754545 
L 312.354434 220.375973 
L 315.667236 223.168154 
L 318.980037 222.290314 
L 322.292839 223.519011 
L 325.60564 226.796538 
L 328.918442 215.044611 
L 332.231243 221.771959 
L 335.544045 211.65082 
L 338.856846 211.27623 
L 342.169647 211.160766 
L 345.482449 209.528667 
L 348.79525 202.011901 
L 352.108052 210.410489 
L 355.420853 209.170551 
L 358.733655 202.24961 
L 362.046456 193.850503 
L 365.359258 193.40007 
L 368.672059 188.261738 
L 371.984861 180.959399 
L 375.297662 183.148733 
L 378.610464 189.056346 
L 381.923265 180.822684 
L 385.236067 173.252347 
L 388.548868 163.816971 
L 391.86167 156.132334 
L 395.174471 127.523122 
L 398.487273 156.481583 
" clip-path="url(#pb04400cab5)" style="fill: none; stroke: #ff7f0e; stroke-width: 1.5; stroke-linecap: square"/>
   </g>
   <g id="line2d_16">
    <path d="M 79.128147 -1 
L 80.45833 82.252173 
L 83.771132 3.476702 
L 87.083933 130.333194 
L 90.396735 123.237949 
L 93.709536 138.910663 
L 97.022338 143.733949 
L 100.335139 143.459904 
L 103.647941 153.372484 
L 106.960742 173.756931 
L 110.273544 179.132226 
L 113.586345 185.884724 
L 116.899147 185.367118 
L 120.211948 199.868362 
L 123.52475 192.442024 
L 126.837551 200.428246 
L 130.150353 200.323651 
L 133.463154 208.627246 
L 136.775955 202.583833 
L 140.088757 209.612237 
L 143.401558 213.980879 
L 146.71436 212.871868 
L 150.027161 204.663505 
L 153.339963 217.353489 
L 156.652764 212.632854 
L 159.965566 220.780037 
L 163.278367 218.390788 
L 166.591169 217.758353 
L 169.90397 214.568362 
L 173.216772 216.964866 
L 176.529573 217.584697 
L 179.842375 219.377731 
L 183.155176 222.209931 
L 186.467978 221.920091 
L 189.780779 213.147734 
L 193.093581 211.714107 
L 196.406382 217.541118 
L 199.719184 222.544941 
L 203.031985 218.602167 
L 206.344787 221.063224 
L 209.657588 219.569036 
L 212.97039 221.773349 
L 216.283191 215.012973 
L 219.595993 217.221292 
L 222.908794 220.766363 
L 226.221596 218.474993 
L 229.534397 209.622009 
L 232.847199 213.139709 
L 236.16 213.014569 
L 239.472801 211.591631 
L 242.785603 211.572213 
L 246.098404 214.192265 
L 249.411206 209.835823 
L 252.724007 208.977754 
L 256.036809 212.373734 
L 259.34961 218.071503 
L 262.662412 206.21664 
L 265.975213 200.545754 
L 269.288015 207.809758 
L 272.600816 205.587845 
L 275.913618 205.318484 
L 279.226419 200.957982 
L 282.539221 200.084319 
L 285.852022 196.925079 
L 289.164824 187.576979 
L 292.477625 192.868534 
L 295.790427 181.269284 
L 299.103228 188.565873 
L 302.41603 180.977965 
L 305.728831 180.983047 
L 309.041633 178.774788 
L 312.354434 181.593756 
L 315.667236 182.938182 
L 318.980037 180.679746 
L 322.292839 178.671004 
L 325.60564 155.686052 
L 328.918442 161.191079 
L 332.231243 166.764302 
L 335.544045 157.276078 
L 338.856846 151.86631 
L 342.169647 154.817091 
L 345.482449 148.470247 
L 348.79525 151.978457 
L 352.108052 143.624516 
L 355.420853 130.514564 
L 358.733655 139.640449 
L 362.046456 150.801479 
L 365.359258 117.596579 
L 368.672059 112.720951 
L 371.984861 120.06071 
L 375.297662 95.970668 
L 378.610464 100.289641 
L 381.923265 101.357071 
L 385.236067 102.292521 
L 388.548868 91.691415 
L 391.86167 81.836135 
L 395.174471 79.341132 
L 398.487273 90.329257 
" clip-path="url(#pb04400cab5)" style="fill: none; stroke: #2ca02c; stroke-width: 1.5; stroke-linecap: square"/>
   </g>
   <g id="line2d_17">
    <path d="M 73.832727 262.051671 
L 77.145529 268.164299 
L 80.45833 274.665163 
L 83.771132 271.832164 
L 87.083933 272.993082 
L 90.396735 278.361049 
L 93.709536 277.233531 
L 97.022338 279.375469 
L 100.335139 278.965798 
L 103.647941 278.754898 
L 106.960742 279.039965 
L 110.273544 281.062684 
L 113.586345 277.148175 
L 116.899147 280.431676 
L 120.211948 280.276674 
L 123.52475 281.90481 
L 126.837551 278.588744 
L 130.150353 281.566729 
L 133.463154 277.177276 
L 136.775955 281.455368 
L 140.088757 279.983561 
L 143.401558 279.186437 
L 146.71436 279.398202 
L 150.027161 279.050534 
L 153.339963 278.668968 
L 156.652764 277.89623 
L 159.965566 277.515368 
L 163.278367 274.968864 
L 166.591169 277.754714 
L 169.90397 278.486305 
L 173.216772 274.069197 
L 176.529573 273.079867 
L 179.842375 275.270267 
L 183.155176 271.444783 
L 186.467978 272.787855 
L 189.780779 271.984664 
L 193.093581 274.494415 
L 196.406382 267.810719 
L 199.719184 264.529807 
L 203.031985 268.308116 
L 206.344787 272.042734 
L 209.657588 267.088678 
L 212.97039 263.993031 
L 216.283191 270.550761 
L 219.595993 267.169981 
L 222.908794 263.947795 
L 226.221596 266.84166 
L 229.534397 265.925079 
L 232.847199 255.257557 
L 236.16 260.393214 
L 239.472801 255.236449 
L 242.785603 253.301978 
L 246.098404 258.350599 
L 249.411206 255.396119 
L 252.724007 249.859271 
L 256.036809 245.70772 
L 259.34961 245.719141 
L 262.662412 241.44344 
L 265.975213 231.695857 
L 269.288015 236.71095 
L 272.600816 221.915842 
L 275.913618 242.006633 
L 279.226419 237.943682 
L 282.539221 224.693353 
L 285.852022 225.20787 
L 289.164824 203.503132 
L 292.477625 228.907343 
L 295.790427 229.350103 
L 299.103228 203.576316 
L 302.41603 210.55136 
L 305.728831 214.133194 
L 309.041633 198.972233 
L 312.354434 200.675342 
L 315.667236 209.644037 
L 318.980037 184.796446 
L 322.292839 174.249353 
L 325.60564 196.861524 
L 328.918442 176.750231 
L 332.231243 205.036549 
L 335.544045 187.740869 
L 338.856846 138.551941 
L 342.169647 183.710926 
L 345.482449 177.82424 
L 348.79525 166.438607 
L 352.108052 145.471628 
L 355.420853 153.021978 
L 358.733655 140.311939 
L 362.046456 109.709605 
L 365.359258 142.341059 
L 368.672059 97.460284 
L 371.984861 140.484038 
L 375.297662 113.948169 
L 378.610464 124.792975 
L 381.923265 125.131123 
L 385.236067 113.253126 
L 388.548868 122.790389 
L 391.86167 92.49836 
L 395.174471 91.573064 
L 398.487273 112.380808 
" clip-path="url(#pb04400cab5)" style="fill: none; stroke: #d62728; stroke-width: 1.5; stroke-linecap: square"/>
   </g>
   <g id="patch_3">
    <path d="M 57.6 307.584 
L 57.6 41.472 
" style="fill: none; stroke: #000000; stroke-width: 0.8; stroke-linejoin: miter; stroke-linecap: square"/>
   </g>
   <g id="patch_4">
    <path d="M 414.72 307.584 
L 414.72 41.472 
" style="fill: none; stroke: #000000; stroke-width: 0.8; stroke-linejoin: miter; stroke-linecap: square"/>
   </g>
   <g id="patch_5">
    <path d="M 57.6 307.584 
L 414.72 307.584 
" style="fill: none; stroke: #000000; stroke-width: 0.8; stroke-linejoin: miter; stroke-linecap: square"/>
   </g>
   <g id="patch_6">
    <path d="M 57.6 41.472 
L 414.72 41.472 
" style="fill: none; stroke: #000000; stroke-width: 0.8; stroke-linejoin: miter; stroke-linecap: square"/>
   </g>
  </g>
 </g>
 <defs>
  <clipPath id="pb04400cab5">
   <rect x="57.6" y="41.472" width="357.12" height="266.112"/>
  </clipPath>
 </defs>
</svg>
