<?xml version="1.0" encoding="utf-8" standalone="no"?>
<!DOCTYPE svg PUBLIC "-//W3C//DTD SVG 1.1//EN"
  "http://www.w3.org/Graphics/SVG/1.1/DTD/svg11.dtd">
<svg xmlns:xlink="http://www.w3.org/1999/xlink" width="432pt" height="432pt" viewBox="0 0 432 432" xmlns="http://www.w3.org/2000/svg" version="1.1">
 <metadata>
  <rdf:RDF xmlns:dc="http://purl.org/dc/elements/1.1/" xmlns:cc="http://creativecommons.org/ns#" xmlns:rdf="http://www.w3.org/1999/02/22-rdf-syntax-ns#">
   <cc:Work>
    <dc:type rdf:resource="http://purl.org/dc/dcmitype/StillImage"/>
    <dc:date>2024-03-29T17:19:23.695307</dc:date>
    <dc:format>image/svg+xml</dc:format>
    <dc:creator>
     <cc:Agent>
      <dc:title>Matplotlib v3.8.3, https://matplotlib.org/</dc:title>
     </cc:Agent>
    </dc:creator>
   </cc:Work>
  </rdf:RDF>
 </metadata>
 <defs>
  <style type="text/css">*{stroke-linejoin: round; stroke-linecap: butt}</style>
 </defs>
 <g id="figure_1">
  <g id="patch_1">
   <path d="M 0 432 
L 432 432 
L 432 0 
L 0 0 
z
" style="fill: #ffffff"/>
  </g>
  <g id="axes_1">
   <g id="patch_2">
    <path d="M 54 384.48 
L 388.8 384.48 
L 388.8 51.84 
L 54 51.84 
z
" style="fill: #ffffff"/>
   </g>
   <g id="matplotlib.axis_1">
    <g id="xtick_1">
     <g id="line2d_1">
      <defs>
       <path id="ma7ed134db9" d="M 0 0 
L 0 3.5 
" style="stroke: #000000; stroke-width: 0.8"/>
      </defs>
      <g>
       <use xlink:href="#ma7ed134db9" x="69.218182" y="384.48" style="stroke: #000000; stroke-width: 0.8"/>
      </g>
     </g>
     <g id="text_1">
      <!-- 0 -->
      <g transform="translate(66.036932 399.078438) scale(0.1 -0.1)">
       <defs>
        <path id="DejaVuSans-30" d="M 2034 4250 
Q 1547 4250 1301 3770 
Q 1056 3291 1056 2328 
Q 1056 1369 1301 889 
Q 1547 409 2034 409 
Q 2525 409 2770 889 
Q 3016 1369 3016 2328 
Q 3016 3291 2770 3770 
Q 2525 4250 2034 4250 
z
M 2034 4750 
Q 2819 4750 3233 4129 
Q 3647 3509 3647 2328 
Q 3647 1150 3233 529 
Q 2819 -91 2034 -91 
Q 1250 -91 836 529 
Q 422 1150 422 2328 
Q 422 3509 836 4129 
Q 1250 4750 2034 4750 
z
" transform="scale(0.015625)"/>
       </defs>
       <use xlink:href="#DejaVuSans-30"/>
      </g>
     </g>
    </g>
    <g id="xtick_2">
     <g id="line2d_2">
      <g>
       <use xlink:href="#ma7ed134db9" x="130.705785" y="384.48" style="stroke: #000000; stroke-width: 0.8"/>
      </g>
     </g>
     <g id="text_2">
      <!-- 20 -->
      <g transform="translate(124.343285 399.078438) scale(0.1 -0.1)">
       <defs>
        <path id="DejaVuSans-32" d="M 1228 531 
L 3431 531 
L 3431 0 
L 469 0 
L 469 531 
Q 828 903 1448 1529 
Q 2069 2156 2228 2338 
Q 2531 2678 2651 2914 
Q 2772 3150 2772 3378 
Q 2772 3750 2511 3984 
Q 2250 4219 1831 4219 
Q 1534 4219 1204 4116 
Q 875 4013 500 3803 
L 500 4441 
Q 881 4594 1212 4672 
Q 1544 4750 1819 4750 
Q 2544 4750 2975 4387 
Q 3406 4025 3406 3419 
Q 3406 3131 3298 2873 
Q 3191 2616 2906 2266 
Q 2828 2175 2409 1742 
Q 1991 1309 1228 531 
z
" transform="scale(0.015625)"/>
       </defs>
       <use xlink:href="#DejaVuSans-32"/>
       <use xlink:href="#DejaVuSans-30" x="63.623047"/>
      </g>
     </g>
    </g>
    <g id="xtick_3">
     <g id="line2d_3">
      <g>
       <use xlink:href="#ma7ed134db9" x="192.193388" y="384.48" style="stroke: #000000; stroke-width: 0.8"/>
      </g>
     </g>
     <g id="text_3">
      <!-- 40 -->
      <g transform="translate(185.830888 399.078438) scale(0.1 -0.1)">
       <defs>
        <path id="DejaVuSans-34" d="M 2419 4116 
L 825 1625 
L 2419 1625 
L 2419 4116 
z
M 2253 4666 
L 3047 4666 
L 3047 1625 
L 3713 1625 
L 3713 1100 
L 3047 1100 
L 3047 0 
L 2419 0 
L 2419 1100 
L 313 1100 
L 313 1709 
L 2253 4666 
z
" transform="scale(0.015625)"/>
       </defs>
       <use xlink:href="#DejaVuSans-34"/>
       <use xlink:href="#DejaVuSans-30" x="63.623047"/>
      </g>
     </g>
    </g>
    <g id="xtick_4">
     <g id="line2d_4">
      <g>
       <use xlink:href="#ma7ed134db9" x="253.680992" y="384.48" style="stroke: #000000; stroke-width: 0.8"/>
      </g>
     </g>
     <g id="text_4">
      <!-- 60 -->
      <g transform="translate(247.318492 399.078438) scale(0.1 -0.1)">
       <defs>
        <path id="DejaVuSans-36" d="M 2113 2584 
Q 1688 2584 1439 2293 
Q 1191 2003 1191 1497 
Q 1191 994 1439 701 
Q 1688 409 2113 409 
Q 2538 409 2786 701 
Q 3034 994 3034 1497 
Q 3034 2003 2786 2293 
Q 2538 2584 2113 2584 
z
M 3366 4563 
L 3366 3988 
Q 3128 4100 2886 4159 
Q 2644 4219 2406 4219 
Q 1781 4219 1451 3797 
Q 1122 3375 1075 2522 
Q 1259 2794 1537 2939 
Q 1816 3084 2150 3084 
Q 2853 3084 3261 2657 
Q 3669 2231 3669 1497 
Q 3669 778 3244 343 
Q 2819 -91 2113 -91 
Q 1303 -91 875 529 
Q 447 1150 447 2328 
Q 447 3434 972 4092 
Q 1497 4750 2381 4750 
Q 2619 4750 2861 4703 
Q 3103 4656 3366 4563 
z
" transform="scale(0.015625)"/>
       </defs>
       <use xlink:href="#DejaVuSans-36"/>
       <use xlink:href="#DejaVuSans-30" x="63.623047"/>
      </g>
     </g>
    </g>
    <g id="xtick_5">
     <g id="line2d_5">
      <g>
       <use xlink:href="#ma7ed134db9" x="315.168595" y="384.48" style="stroke: #000000; stroke-width: 0.8"/>
      </g>
     </g>
     <g id="text_5">
      <!-- 80 -->
      <g transform="translate(308.806095 399.078438) scale(0.1 -0.1)">
       <defs>
        <path id="DejaVuSans-38" d="M 2034 2216 
Q 1584 2216 1326 1975 
Q 1069 1734 1069 1313 
Q 1069 891 1326 650 
Q 1584 409 2034 409 
Q 2484 409 2743 651 
Q 3003 894 3003 1313 
Q 3003 1734 2745 1975 
Q 2488 2216 2034 2216 
z
M 1403 2484 
Q 997 2584 770 2862 
Q 544 3141 544 3541 
Q 544 4100 942 4425 
Q 1341 4750 2034 4750 
Q 2731 4750 3128 4425 
Q 3525 4100 3525 3541 
Q 3525 3141 3298 2862 
Q 3072 2584 2669 2484 
Q 3125 2378 3379 2068 
Q 3634 1759 3634 1313 
Q 3634 634 3220 271 
Q 2806 -91 2034 -91 
Q 1263 -91 848 271 
Q 434 634 434 1313 
Q 434 1759 690 2068 
Q 947 2378 1403 2484 
z
M 1172 3481 
Q 1172 3119 1398 2916 
Q 1625 2713 2034 2713 
Q 2441 2713 2670 2916 
Q 2900 3119 2900 3481 
Q 2900 3844 2670 4047 
Q 2441 4250 2034 4250 
Q 1625 4250 1398 4047 
Q 1172 3844 1172 3481 
z
" transform="scale(0.015625)"/>
       </defs>
       <use xlink:href="#DejaVuSans-38"/>
       <use xlink:href="#DejaVuSans-30" x="63.623047"/>
      </g>
     </g>
    </g>
    <g id="xtick_6">
     <g id="line2d_6">
      <g>
       <use xlink:href="#ma7ed134db9" x="376.656198" y="384.48" style="stroke: #000000; stroke-width: 0.8"/>
      </g>
     </g>
     <g id="text_6">
      <!-- 100 -->
      <g transform="translate(367.112448 399.078438) scale(0.1 -0.1)">
       <defs>
        <path id="DejaVuSans-31" d="M 794 531 
L 1825 531 
L 1825 4091 
L 703 3866 
L 703 4441 
L 1819 4666 
L 2450 4666 
L 2450 531 
L 3481 531 
L 3481 0 
L 794 0 
L 794 531 
z
" transform="scale(0.015625)"/>
       </defs>
       <use xlink:href="#DejaVuSans-31"/>
       <use xlink:href="#DejaVuSans-30" x="63.623047"/>
       <use xlink:href="#DejaVuSans-30" x="127.246094"/>
      </g>
     </g>
    </g>
   </g>
   <g id="matplotlib.axis_2">
    <g id="ytick_1">
     <g id="line2d_7">
      <defs>
       <path id="mfab6228f18" d="M 0 0 
L -3.5 0 
" style="stroke: #000000; stroke-width: 0.8"/>
      </defs>
      <g>
       <use xlink:href="#mfab6228f18" x="54" y="369.36" style="stroke: #000000; stroke-width: 0.8"/>
      </g>
     </g>
     <g id="text_7">
      <!-- 0.0 -->
      <g transform="translate(31.096875 373.159219) scale(0.1 -0.1)">
       <defs>
        <path id="DejaVuSans-2e" d="M 684 794 
L 1344 794 
L 1344 0 
L 684 0 
L 684 794 
z
" transform="scale(0.015625)"/>
       </defs>
       <use xlink:href="#DejaVuSans-30"/>
       <use xlink:href="#DejaVuSans-2e" x="63.623047"/>
       <use xlink:href="#DejaVuSans-30" x="95.410156"/>
      </g>
     </g>
    </g>
    <g id="ytick_2">
     <g id="line2d_8">
      <g>
       <use xlink:href="#mfab6228f18" x="54" y="323.43637" style="stroke: #000000; stroke-width: 0.8"/>
      </g>
     </g>
     <g id="text_8">
      <!-- 0.5 -->
      <g transform="translate(31.096875 327.235589) scale(0.1 -0.1)">
       <defs>
        <path id="DejaVuSans-35" d="M 691 4666 
L 3169 4666 
L 3169 4134 
L 1269 4134 
L 1269 2991 
Q 1406 3038 1543 3061 
Q 1681 3084 1819 3084 
Q 2600 3084 3056 2656 
Q 3513 2228 3513 1497 
Q 3513 744 3044 326 
Q 2575 -91 1722 -91 
Q 1428 -91 1123 -41 
Q 819 9 494 109 
L 494 744 
Q 775 591 1075 516 
Q 1375 441 1709 441 
Q 2250 441 2565 725 
Q 2881 1009 2881 1497 
Q 2881 1984 2565 2268 
Q 2250 2553 1709 2553 
Q 1456 2553 1204 2497 
Q 953 2441 691 2322 
L 691 4666 
z
" transform="scale(0.015625)"/>
       </defs>
       <use xlink:href="#DejaVuSans-30"/>
       <use xlink:href="#DejaVuSans-2e" x="63.623047"/>
       <use xlink:href="#DejaVuSans-35" x="95.410156"/>
      </g>
     </g>
    </g>
    <g id="ytick_3">
     <g id="line2d_9">
      <g>
       <use xlink:href="#mfab6228f18" x="54" y="277.512741" style="stroke: #000000; stroke-width: 0.8"/>
      </g>
     </g>
     <g id="text_9">
      <!-- 1.0 -->
      <g transform="translate(31.096875 281.31196) scale(0.1 -0.1)">
       <use xlink:href="#DejaVuSans-31"/>
       <use xlink:href="#DejaVuSans-2e" x="63.623047"/>
       <use xlink:href="#DejaVuSans-30" x="95.410156"/>
      </g>
     </g>
    </g>
    <g id="ytick_4">
     <g id="line2d_10">
      <g>
       <use xlink:href="#mfab6228f18" x="54" y="231.589111" style="stroke: #000000; stroke-width: 0.8"/>
      </g>
     </g>
     <g id="text_10">
      <!-- 1.5 -->
      <g transform="translate(31.096875 235.38833) scale(0.1 -0.1)">
       <use xlink:href="#DejaVuSans-31"/>
       <use xlink:href="#DejaVuSans-2e" x="63.623047"/>
       <use xlink:href="#DejaVuSans-35" x="95.410156"/>
      </g>
     </g>
    </g>
    <g id="ytick_5">
     <g id="line2d_11">
      <g>
       <use xlink:href="#mfab6228f18" x="54" y="185.665482" style="stroke: #000000; stroke-width: 0.8"/>
      </g>
     </g>
     <g id="text_11">
      <!-- 2.0 -->
      <g transform="translate(31.096875 189.4647) scale(0.1 -0.1)">
       <use xlink:href="#DejaVuSans-32"/>
       <use xlink:href="#DejaVuSans-2e" x="63.623047"/>
       <use xlink:href="#DejaVuSans-30" x="95.410156"/>
      </g>
     </g>
    </g>
    <g id="ytick_6">
     <g id="line2d_12">
      <g>
       <use xlink:href="#mfab6228f18" x="54" y="139.741852" style="stroke: #000000; stroke-width: 0.8"/>
      </g>
     </g>
     <g id="text_12">
      <!-- 2.5 -->
      <g transform="translate(31.096875 143.541071) scale(0.1 -0.1)">
       <use xlink:href="#DejaVuSans-32"/>
       <use xlink:href="#DejaVuSans-2e" x="63.623047"/>
       <use xlink:href="#DejaVuSans-35" x="95.410156"/>
      </g>
     </g>
    </g>
    <g id="ytick_7">
     <g id="line2d_13">
      <g>
       <use xlink:href="#mfab6228f18" x="54" y="93.818222" style="stroke: #000000; stroke-width: 0.8"/>
      </g>
     </g>
     <g id="text_13">
      <!-- 3.0 -->
      <g transform="translate(31.096875 97.617441) scale(0.1 -0.1)">
       <defs>
        <path id="DejaVuSans-33" d="M 2597 2516 
Q 3050 2419 3304 2112 
Q 3559 1806 3559 1356 
Q 3559 666 3084 287 
Q 2609 -91 1734 -91 
Q 1441 -91 1130 -33 
Q 819 25 488 141 
L 488 750 
Q 750 597 1062 519 
Q 1375 441 1716 441 
Q 2309 441 2620 675 
Q 2931 909 2931 1356 
Q 2931 1769 2642 2001 
Q 2353 2234 1838 2234 
L 1294 2234 
L 1294 2753 
L 1863 2753 
Q 2328 2753 2575 2939 
Q 2822 3125 2822 3475 
Q 2822 3834 2567 4026 
Q 2313 4219 1838 4219 
Q 1578 4219 1281 4162 
Q 984 4106 628 3988 
L 628 4550 
Q 988 4650 1302 4700 
Q 1616 4750 1894 4750 
Q 2613 4750 3031 4423 
Q 3450 4097 3450 3541 
Q 3450 3153 3228 2886 
Q 3006 2619 2597 2516 
z
" transform="scale(0.015625)"/>
       </defs>
       <use xlink:href="#DejaVuSans-33"/>
       <use xlink:href="#DejaVuSans-2e" x="63.623047"/>
       <use xlink:href="#DejaVuSans-30" x="95.410156"/>
      </g>
     </g>
    </g>
   </g>
   <g id="line2d_14">
    <path d="M 69.218182 369.36 
L 72.292562 366.305455 
L 75.366942 363.250909 
L 78.441322 360.196364 
L 81.515702 357.141818 
L 84.590083 354.087273 
L 87.664463 351.032727 
L 90.738843 347.978182 
L 93.813223 344.923636 
L 96.887603 341.869091 
L 99.961983 338.814545 
L 103.036364 335.76 
L 106.110744 332.705455 
L 109.185124 329.650909 
L 112.259504 326.596364 
L 115.333884 323.541818 
L 118.408264 320.487273 
L 121.482645 317.432727 
L 124.557025 314.378182 
L 127.631405 311.323636 
L 130.705785 308.269091 
L 133.780165 305.214545 
L 136.854545 302.16 
L 139.928926 299.105455 
L 143.003306 296.050909 
L 146.077686 292.996364 
L 149.152066 289.941818 
L 152.226446 286.887273 
L 155.300826 283.832727 
L 158.375207 280.778182 
L 161.449587 277.723636 
L 164.523967 274.669091 
L 167.598347 271.614545 
L 170.672727 268.56 
L 173.747107 265.505455 
L 176.821488 262.450909 
L 179.895868 259.396364 
L 182.970248 256.341818 
L 186.044628 253.287273 
L 189.119008 250.232727 
L 192.193388 247.178182 
L 195.267769 244.123636 
L 198.342149 241.069091 
L 201.416529 238.014545 
L 204.490909 234.96 
L 207.565289 231.905455 
L 210.639669 228.850909 
L 213.71405 225.796364 
L 216.78843 222.741818 
L 219.86281 219.687273 
L 222.93719 216.632727 
L 226.01157 213.578182 
L 229.08595 210.523636 
L 232.160331 207.469091 
L 235.234711 204.414545 
L 238.309091 201.36 
L 241.383471 198.305455 
L 244.457851 195.250909 
L 247.532231 192.196364 
L 250.606612 189.141818 
L 253.680992 186.087273 
L 256.755372 183.032727 
L 259.829752 179.978182 
L 262.904132 176.923636 
L 265.978512 173.869091 
L 269.052893 170.814545 
L 272.127273 167.76 
L 275.201653 164.705455 
L 278.276033 161.650909 
L 281.350413 158.596364 
L 284.424793 155.541818 
L 287.499174 152.487273 
L 290.573554 149.432727 
L 293.647934 146.378182 
L 296.722314 143.323636 
L 299.796694 140.269091 
L 302.871074 137.214545 
L 305.945455 134.16 
L 309.019835 131.105455 
L 312.094215 128.050909 
L 315.168595 124.996364 
L 318.242975 121.941818 
L 321.317355 118.887273 
L 324.391736 115.832727 
L 327.466116 112.778182 
L 330.540496 109.723636 
L 333.614876 106.669091 
L 336.689256 103.614545 
L 339.763636 100.56 
L 342.838017 97.505455 
L 345.912397 94.450909 
L 348.986777 91.396364 
L 352.061157 88.341818 
L 355.135537 85.287273 
L 358.209917 82.232727 
L 361.284298 79.178182 
L 364.358678 76.123636 
L 367.433058 73.069091 
L 370.507438 70.014545 
L 373.581818 66.96 
" clip-path="url(#p282e841b40)" style="fill: none; stroke: #1f77b4; stroke-width: 2; stroke-linecap: square"/>
   </g>
   <g id="line2d_15">
    <path d="M 69.218182 368.585687 
L 72.292562 367.690085 
L 75.366942 366.831226 
L 78.441322 365.913845 
L 81.515702 364.980922 
L 84.590083 364.064459 
L 87.664463 363.111717 
L 90.738843 362.162125 
L 93.813223 361.195719 
L 96.887603 360.261119 
L 99.961983 359.243896 
L 103.036364 358.269358 
L 106.110744 357.295459 
L 109.185124 356.307286 
L 112.259504 355.315676 
L 115.333884 354.299054 
L 118.408264 353.325946 
L 121.482645 352.359258 
L 124.557025 351.343979 
L 127.631405 350.262244 
L 130.705785 349.194178 
L 133.780165 348.092358 
L 136.854545 347.02491 
L 139.928926 345.914048 
L 143.003306 344.748168 
L 146.077686 343.632338 
L 149.152066 342.511391 
L 152.226446 341.351572 
L 155.300826 340.218466 
L 158.375207 339.023447 
L 161.449587 337.825904 
L 164.523967 336.582406 
L 167.598347 335.344768 
L 170.672727 334.12141 
L 173.747107 332.826254 
L 176.821488 331.561083 
L 179.895868 330.281185 
L 182.970248 328.93987 
L 186.044628 327.619048 
L 189.119008 326.207942 
L 192.193388 324.793051 
L 195.267769 323.409349 
L 198.342149 321.888093 
L 201.416529 320.436492 
L 204.490909 318.934853 
L 207.565289 317.489222 
L 210.639669 316.085817 
L 213.71405 314.569235 
L 216.78843 313.014458 
L 219.86281 311.435995 
L 222.93719 309.694181 
L 226.01157 308.058458 
L 229.08595 306.387876 
L 232.160331 304.659123 
L 235.234711 302.972611 
L 238.309091 301.170654 
L 241.383471 299.299325 
L 244.457851 297.340517 
L 247.532231 295.369475 
L 250.606612 293.391016 
L 253.680992 291.426987 
L 256.755372 289.455553 
L 259.829752 287.372217 
L 262.904132 285.418436 
L 265.978512 283.224207 
L 269.052893 280.979455 
L 272.127273 278.773778 
L 275.201653 276.371322 
L 278.276033 273.98513 
L 281.350413 271.551976 
L 284.424793 268.786312 
L 287.499174 266.101915 
L 290.573554 263.319296 
L 293.647934 260.562447 
L 296.722314 257.779131 
L 299.796694 254.64154 
L 302.871074 251.48007 
L 305.945455 248.376743 
L 309.019835 245.090956 
L 312.094215 241.553098 
L 315.168595 237.884699 
L 318.242975 234.127538 
L 321.317355 230.418013 
L 324.391736 226.607827 
L 327.466116 222.113841 
L 330.540496 217.496787 
L 333.614876 212.797684 
L 336.689256 207.70038 
L 339.763636 202.469089 
L 342.838017 196.610864 
L 345.912397 190.695314 
L 348.986777 184.290719 
L 352.061157 177.551647 
L 355.135537 170.037615 
L 358.209917 161.610106 
L 361.284298 152.228108 
L 364.358678 140.982406 
L 367.433058 128.485382 
L 370.507438 114.402958 
L 373.581818 96.094314 
" clip-path="url(#p282e841b40)" style="fill: none; stroke: #ff7f0e; stroke-width: 2; stroke-linecap: square"/>
   </g>
   <g id="line2d_16">
    <path d="M 69.218182 358.970992 
L 72.292562 353.137906 
L 75.366942 348.702628 
L 78.441322 344.849701 
L 81.515702 341.408534 
L 84.590083 338.361008 
L 87.664463 335.471657 
L 90.738843 332.668739 
L 93.813223 329.928563 
L 96.887603 327.369277 
L 99.961983 324.877542 
L 103.036364 322.432532 
L 106.110744 319.96989 
L 109.185124 317.66726 
L 112.259504 315.459959 
L 115.333884 313.311465 
L 118.408264 311.141767 
L 121.482645 309.013416 
L 124.557025 306.905906 
L 127.631405 304.825781 
L 130.705785 302.71297 
L 133.780165 300.631339 
L 136.854545 298.733996 
L 139.928926 296.564808 
L 143.003306 294.390895 
L 146.077686 292.413327 
L 149.152066 290.394434 
L 152.226446 288.44999 
L 155.300826 286.488928 
L 158.375207 284.575718 
L 161.449587 282.450579 
L 164.523967 280.461867 
L 167.598347 278.414434 
L 170.672727 276.386873 
L 173.747107 274.269219 
L 176.821488 272.238903 
L 179.895868 270.087146 
L 182.970248 268.161711 
L 186.044628 266.154202 
L 189.119008 264.251448 
L 192.193388 262.215804 
L 195.267769 260.286238 
L 198.342149 258.335734 
L 201.416529 256.297109 
L 204.490909 254.2094 
L 207.565289 252.109039 
L 210.639669 250.006554 
L 213.71405 247.855736 
L 216.78843 245.612377 
L 219.86281 243.616172 
L 222.93719 241.508362 
L 226.01157 239.419044 
L 229.08595 237.17553 
L 232.160331 234.930189 
L 235.234711 232.766781 
L 238.309091 230.504567 
L 241.383471 228.171344 
L 244.457851 225.839759 
L 247.532231 223.619108 
L 250.606612 221.132462 
L 253.680992 218.806587 
L 256.755372 216.329275 
L 259.829752 213.999907 
L 262.904132 211.585009 
L 265.978512 209.128341 
L 269.052893 206.745261 
L 272.127273 204.420436 
L 275.201653 201.852959 
L 278.276033 199.120346 
L 281.350413 196.545235 
L 284.424793 193.881471 
L 287.499174 190.890874 
L 290.573554 188.179922 
L 293.647934 185.198465 
L 296.722314 182.32661 
L 299.796694 179.2563 
L 302.871074 176.31716 
L 305.945455 173.248526 
L 309.019835 170.224449 
L 312.094215 167.004328 
L 315.168595 163.918955 
L 318.242975 160.568813 
L 321.317355 157.176502 
L 324.391736 153.93132 
L 327.466116 150.262532 
L 330.540496 146.718079 
L 333.614876 143.010515 
L 336.689256 139.112984 
L 339.763636 135.234076 
L 342.838017 131.090368 
L 345.912397 126.878989 
L 348.986777 122.163522 
L 352.061157 117.468688 
L 355.135537 112.620946 
L 358.209917 107.382423 
L 361.284298 102.014442 
L 364.358678 96.097085 
L 367.433058 89.942852 
L 370.507438 83.027435 
L 373.581818 75.563165 
" clip-path="url(#p282e841b40)" style="fill: none; stroke: #2ca02c; stroke-width: 2; stroke-linecap: square"/>
   </g>
   <g id="line2d_17">
    <path d="M 69.218182 328.370405 
L 72.292562 322.241104 
L 75.366942 318.475114 
L 78.441322 315.585583 
L 81.515702 313.361583 
L 84.590083 311.390611 
L 87.664463 309.724838 
L 90.738843 308.134767 
L 93.813223 306.725123 
L 96.887603 305.393249 
L 99.961983 304.085561 
L 103.036364 302.923625 
L 106.110744 301.834069 
L 109.185124 300.749247 
L 112.259504 299.716084 
L 115.333884 298.674982 
L 118.408264 297.697446 
L 121.482645 296.683453 
L 124.557025 295.761067 
L 127.631405 294.847936 
L 130.705785 293.929392 
L 133.780165 293.083322 
L 136.854545 292.207354 
L 139.928926 291.369236 
L 143.003306 290.547695 
L 146.077686 289.719874 
L 149.152066 288.934662 
L 152.226446 288.126863 
L 155.300826 287.336108 
L 158.375207 286.554091 
L 161.449587 285.799402 
L 164.523967 285.059 
L 167.598347 284.313213 
L 170.672727 283.579005 
L 173.747107 282.830732 
L 176.821488 282.072613 
L 179.895868 281.34006 
L 182.970248 280.645444 
L 186.044628 279.881468 
L 189.119008 279.133078 
L 192.193388 278.379454 
L 195.267769 277.64034 
L 198.342149 276.871755 
L 201.416529 276.17414 
L 204.490909 275.430379 
L 207.565289 274.701566 
L 210.639669 273.953083 
L 213.71405 273.237287 
L 216.78843 272.532292 
L 219.86281 271.786669 
L 222.93719 271.031413 
L 226.01157 270.281354 
L 229.08595 269.57511 
L 232.160331 268.804202 
L 235.234711 268.056891 
L 238.309091 267.252833 
L 241.383471 266.447291 
L 244.457851 265.649644 
L 247.532231 264.899054 
L 250.606612 264.091799 
L 253.680992 263.30876 
L 256.755372 262.472651 
L 259.829752 261.628291 
L 262.904132 260.777948 
L 265.978512 259.878222 
L 269.052893 258.997317 
L 272.127273 258.116784 
L 275.201653 257.166735 
L 278.276033 256.230455 
L 281.350413 255.345981 
L 284.424793 254.406612 
L 287.499174 253.429012 
L 290.573554 252.455991 
L 293.647934 251.454814 
L 296.722314 250.396214 
L 299.796694 249.391997 
L 302.871074 248.321415 
L 305.945455 247.191668 
L 309.019835 246.039821 
L 312.094215 244.844242 
L 315.168595 243.592734 
L 318.242975 242.279663 
L 321.317355 240.953534 
L 324.391736 239.554389 
L 327.466116 238.048384 
L 330.540496 236.501507 
L 333.614876 234.923736 
L 336.689256 233.099084 
L 339.763636 231.250737 
L 342.838017 229.194313 
L 345.912397 227.045054 
L 348.986777 224.630985 
L 352.061157 222.143989 
L 355.135537 219.309297 
L 358.209917 216.0958 
L 361.284298 212.341143 
L 364.358678 207.764134 
L 367.433058 202.050183 
L 370.507438 193.586285 
L 373.581818 178.568294 
" clip-path="url(#p282e841b40)" style="fill: none; stroke: #d62728; stroke-width: 2; stroke-linecap: square"/>
   </g>
   <g id="line2d_18">
    <path d="M 69.218182 278.431213 
L 72.292562 278.412658 
L 75.366942 278.394103 
L 78.441322 278.375548 
L 81.515702 278.356993 
L 84.590083 278.338438 
L 87.664463 278.319883 
L 90.738843 278.301328 
L 93.813223 278.282773 
L 96.887603 278.264218 
L 99.961983 278.245663 
L 103.036364 278.227108 
L 106.110744 278.208553 
L 109.185124 278.189998 
L 112.259504 278.171443 
L 115.333884 278.152888 
L 118.408264 278.134333 
L 121.482645 278.115778 
L 124.557025 278.097223 
L 127.631405 278.078668 
L 130.705785 278.060113 
L 133.780165 278.041558 
L 136.854545 278.023003 
L 139.928926 278.004448 
L 143.003306 277.985893 
L 146.077686 277.967338 
L 149.152066 277.948783 
L 152.226446 277.930228 
L 155.300826 277.911673 
L 158.375207 277.893118 
L 161.449587 277.874563 
L 164.523967 277.856008 
L 167.598347 277.837453 
L 170.672727 277.818898 
L 173.747107 277.800343 
L 176.821488 277.781788 
L 179.895868 277.763233 
L 182.970248 277.744678 
L 186.044628 277.726123 
L 189.119008 277.707568 
L 192.193388 277.689013 
L 195.267769 277.670458 
L 198.342149 277.651903 
L 201.416529 277.633348 
L 204.490909 277.614793 
L 207.565289 277.596238 
L 210.639669 277.577683 
L 213.71405 277.559128 
L 216.78843 277.540573 
L 219.86281 277.522018 
L 222.93719 277.503463 
L 226.01157 277.484908 
L 229.08595 277.466353 
L 232.160331 277.447798 
L 235.234711 277.429243 
L 238.309091 277.410688 
L 241.383471 277.392133 
L 244.457851 277.373578 
L 247.532231 277.355023 
L 250.606612 277.336468 
L 253.680992 277.317913 
L 256.755372 277.299358 
L 259.829752 277.280803 
L 262.904132 277.262248 
L 265.978512 277.243693 
L 269.052893 277.225138 
L 272.127273 277.206583 
L 275.201653 277.188028 
L 278.276033 277.169473 
L 281.350413 277.150918 
L 284.424793 277.132363 
L 287.499174 277.113808 
L 290.573554 277.095253 
L 293.647934 277.076698 
L 296.722314 277.058143 
L 299.796694 277.039588 
L 302.871074 277.021033 
L 305.945455 277.002478 
L 309.019835 276.983923 
L 312.094215 276.965368 
L 315.168595 276.946813 
L 318.242975 276.928258 
L 321.317355 276.909703 
L 324.391736 276.891148 
L 327.466116 276.872593 
L 330.540496 276.854038 
L 333.614876 276.835483 
L 336.689256 276.816928 
L 339.763636 276.798373 
L 342.838017 276.779818 
L 345.912397 276.761263 
L 348.986777 276.742708 
L 352.061157 276.724153 
L 355.135537 276.705598 
L 358.209917 276.687043 
L 361.284298 276.668488 
L 364.358678 276.649933 
L 367.433058 276.631378 
L 370.507438 276.612823 
L 373.581818 276.594268 
" clip-path="url(#p282e841b40)" style="fill: none; stroke: #9467bd; stroke-width: 2; stroke-linecap: square"/>
   </g>
   <g id="patch_3">
    <path d="M 54 384.48 
L 54 51.84 
" style="fill: none; stroke: #000000; stroke-width: 0.8; stroke-linejoin: miter; stroke-linecap: square"/>
   </g>
   <g id="patch_4">
    <path d="M 388.8 384.48 
L 388.8 51.84 
" style="fill: none; stroke: #000000; stroke-width: 0.8; stroke-linejoin: miter; stroke-linecap: square"/>
   </g>
   <g id="patch_5">
    <path d="M 54 384.48 
L 388.8 384.48 
" style="fill: none; stroke: #000000; stroke-width: 0.8; stroke-linejoin: miter; stroke-linecap: square"/>
   </g>
   <g id="patch_6">
    <path d="M 54 51.84 
L 388.8 51.84 
" style="fill: none; stroke: #000000; stroke-width: 0.8; stroke-linejoin: miter; stroke-linecap: square"/>
   </g>
   <g id="legend_1">
    <g id="patch_7">
     <path d="M 61 134.065 
L 242.914062 134.065 
Q 244.914062 134.065 244.914062 132.065 
L 244.914062 58.84 
Q 244.914062 56.84 242.914062 56.84 
L 61 56.84 
Q 59 56.84 59 58.84 
L 59 132.065 
Q 59 134.065 61 134.065 
z
" style="fill: #ffffff; opacity: 0.8; stroke: #cccccc; stroke-linejoin: miter"/>
    </g>
    <g id="line2d_19">
     <path d="M 63 64.938437 
L 73 64.938437 
L 83 64.938437 
" style="fill: none; stroke: #1f77b4; stroke-width: 2; stroke-linecap: square"/>
    </g>
    <g id="text_14">
     <!-- uniform -->
     <g transform="translate(91 68.438437) scale(0.1 -0.1)">
      <defs>
       <path id="DejaVuSans-75" d="M 544 1381 
L 544 3500 
L 1119 3500 
L 1119 1403 
Q 1119 906 1312 657 
Q 1506 409 1894 409 
Q 2359 409 2629 706 
Q 2900 1003 2900 1516 
L 2900 3500 
L 3475 3500 
L 3475 0 
L 2900 0 
L 2900 538 
Q 2691 219 2414 64 
Q 2138 -91 1772 -91 
Q 1169 -91 856 284 
Q 544 659 544 1381 
z
M 1991 3584 
L 1991 3584 
z
" transform="scale(0.015625)"/>
       <path id="DejaVuSans-6e" d="M 3513 2113 
L 3513 0 
L 2938 0 
L 2938 2094 
Q 2938 2591 2744 2837 
Q 2550 3084 2163 3084 
Q 1697 3084 1428 2787 
Q 1159 2491 1159 1978 
L 1159 0 
L 581 0 
L 581 3500 
L 1159 3500 
L 1159 2956 
Q 1366 3272 1645 3428 
Q 1925 3584 2291 3584 
Q 2894 3584 3203 3211 
Q 3513 2838 3513 2113 
z
" transform="scale(0.015625)"/>
       <path id="DejaVuSans-69" d="M 603 3500 
L 1178 3500 
L 1178 0 
L 603 0 
L 603 3500 
z
M 603 4863 
L 1178 4863 
L 1178 4134 
L 603 4134 
L 603 4863 
z
" transform="scale(0.015625)"/>
       <path id="DejaVuSans-66" d="M 2375 4863 
L 2375 4384 
L 1825 4384 
Q 1516 4384 1395 4259 
Q 1275 4134 1275 3809 
L 1275 3500 
L 2222 3500 
L 2222 3053 
L 1275 3053 
L 1275 0 
L 697 0 
L 697 3053 
L 147 3053 
L 147 3500 
L 697 3500 
L 697 3744 
Q 697 4328 969 4595 
Q 1241 4863 1831 4863 
L 2375 4863 
z
" transform="scale(0.015625)"/>
       <path id="DejaVuSans-6f" d="M 1959 3097 
Q 1497 3097 1228 2736 
Q 959 2375 959 1747 
Q 959 1119 1226 758 
Q 1494 397 1959 397 
Q 2419 397 2687 759 
Q 2956 1122 2956 1747 
Q 2956 2369 2687 2733 
Q 2419 3097 1959 3097 
z
M 1959 3584 
Q 2709 3584 3137 3096 
Q 3566 2609 3566 1747 
Q 3566 888 3137 398 
Q 2709 -91 1959 -91 
Q 1206 -91 779 398 
Q 353 888 353 1747 
Q 353 2609 779 3096 
Q 1206 3584 1959 3584 
z
" transform="scale(0.015625)"/>
       <path id="DejaVuSans-72" d="M 2631 2963 
Q 2534 3019 2420 3045 
Q 2306 3072 2169 3072 
Q 1681 3072 1420 2755 
Q 1159 2438 1159 1844 
L 1159 0 
L 581 0 
L 581 3500 
L 1159 3500 
L 1159 2956 
Q 1341 3275 1631 3429 
Q 1922 3584 2338 3584 
Q 2397 3584 2469 3576 
Q 2541 3569 2628 3553 
L 2631 2963 
z
" transform="scale(0.015625)"/>
       <path id="DejaVuSans-6d" d="M 3328 2828 
Q 3544 3216 3844 3400 
Q 4144 3584 4550 3584 
Q 5097 3584 5394 3201 
Q 5691 2819 5691 2113 
L 5691 0 
L 5113 0 
L 5113 2094 
Q 5113 2597 4934 2840 
Q 4756 3084 4391 3084 
Q 3944 3084 3684 2787 
Q 3425 2491 3425 1978 
L 3425 0 
L 2847 0 
L 2847 2094 
Q 2847 2600 2669 2842 
Q 2491 3084 2119 3084 
Q 1678 3084 1418 2786 
Q 1159 2488 1159 1978 
L 1159 0 
L 581 0 
L 581 3500 
L 1159 3500 
L 1159 2956 
Q 1356 3278 1631 3431 
Q 1906 3584 2284 3584 
Q 2666 3584 2933 3390 
Q 3200 3197 3328 2828 
z
" transform="scale(0.015625)"/>
      </defs>
      <use xlink:href="#DejaVuSans-75"/>
      <use xlink:href="#DejaVuSans-6e" x="63.378906"/>
      <use xlink:href="#DejaVuSans-69" x="126.757812"/>
      <use xlink:href="#DejaVuSans-66" x="154.541016"/>
      <use xlink:href="#DejaVuSans-6f" x="189.746094"/>
      <use xlink:href="#DejaVuSans-72" x="250.927734"/>
      <use xlink:href="#DejaVuSans-6d" x="290.291016"/>
     </g>
    </g>
    <g id="line2d_20">
     <path d="M 63 79.616562 
L 73 79.616562 
L 83 79.616562 
" style="fill: none; stroke: #ff7f0e; stroke-width: 2; stroke-linecap: square"/>
    </g>
    <g id="text_15">
     <!-- exponential -->
     <g transform="translate(91 83.116562) scale(0.1 -0.1)">
      <defs>
       <path id="DejaVuSans-65" d="M 3597 1894 
L 3597 1613 
L 953 1613 
Q 991 1019 1311 708 
Q 1631 397 2203 397 
Q 2534 397 2845 478 
Q 3156 559 3463 722 
L 3463 178 
Q 3153 47 2828 -22 
Q 2503 -91 2169 -91 
Q 1331 -91 842 396 
Q 353 884 353 1716 
Q 353 2575 817 3079 
Q 1281 3584 2069 3584 
Q 2775 3584 3186 3129 
Q 3597 2675 3597 1894 
z
M 3022 2063 
Q 3016 2534 2758 2815 
Q 2500 3097 2075 3097 
Q 1594 3097 1305 2825 
Q 1016 2553 972 2059 
L 3022 2063 
z
" transform="scale(0.015625)"/>
       <path id="DejaVuSans-78" d="M 3513 3500 
L 2247 1797 
L 3578 0 
L 2900 0 
L 1881 1375 
L 863 0 
L 184 0 
L 1544 1831 
L 300 3500 
L 978 3500 
L 1906 2253 
L 2834 3500 
L 3513 3500 
z
" transform="scale(0.015625)"/>
       <path id="DejaVuSans-70" d="M 1159 525 
L 1159 -1331 
L 581 -1331 
L 581 3500 
L 1159 3500 
L 1159 2969 
Q 1341 3281 1617 3432 
Q 1894 3584 2278 3584 
Q 2916 3584 3314 3078 
Q 3713 2572 3713 1747 
Q 3713 922 3314 415 
Q 2916 -91 2278 -91 
Q 1894 -91 1617 61 
Q 1341 213 1159 525 
z
M 3116 1747 
Q 3116 2381 2855 2742 
Q 2594 3103 2138 3103 
Q 1681 3103 1420 2742 
Q 1159 2381 1159 1747 
Q 1159 1113 1420 752 
Q 1681 391 2138 391 
Q 2594 391 2855 752 
Q 3116 1113 3116 1747 
z
" transform="scale(0.015625)"/>
       <path id="DejaVuSans-74" d="M 1172 4494 
L 1172 3500 
L 2356 3500 
L 2356 3053 
L 1172 3053 
L 1172 1153 
Q 1172 725 1289 603 
Q 1406 481 1766 481 
L 2356 481 
L 2356 0 
L 1766 0 
Q 1100 0 847 248 
Q 594 497 594 1153 
L 594 3053 
L 172 3053 
L 172 3500 
L 594 3500 
L 594 4494 
L 1172 4494 
z
" transform="scale(0.015625)"/>
       <path id="DejaVuSans-61" d="M 2194 1759 
Q 1497 1759 1228 1600 
Q 959 1441 959 1056 
Q 959 750 1161 570 
Q 1363 391 1709 391 
Q 2188 391 2477 730 
Q 2766 1069 2766 1631 
L 2766 1759 
L 2194 1759 
z
M 3341 1997 
L 3341 0 
L 2766 0 
L 2766 531 
Q 2569 213 2275 61 
Q 1981 -91 1556 -91 
Q 1019 -91 701 211 
Q 384 513 384 1019 
Q 384 1609 779 1909 
Q 1175 2209 1959 2209 
L 2766 2209 
L 2766 2266 
Q 2766 2663 2505 2880 
Q 2244 3097 1772 3097 
Q 1472 3097 1187 3025 
Q 903 2953 641 2809 
L 641 3341 
Q 956 3463 1253 3523 
Q 1550 3584 1831 3584 
Q 2591 3584 2966 3190 
Q 3341 2797 3341 1997 
z
" transform="scale(0.015625)"/>
       <path id="DejaVuSans-6c" d="M 603 4863 
L 1178 4863 
L 1178 0 
L 603 0 
L 603 4863 
z
" transform="scale(0.015625)"/>
      </defs>
      <use xlink:href="#DejaVuSans-65"/>
      <use xlink:href="#DejaVuSans-78" x="59.773438"/>
      <use xlink:href="#DejaVuSans-70" x="118.953125"/>
      <use xlink:href="#DejaVuSans-6f" x="182.429688"/>
      <use xlink:href="#DejaVuSans-6e" x="243.611328"/>
      <use xlink:href="#DejaVuSans-65" x="306.990234"/>
      <use xlink:href="#DejaVuSans-6e" x="368.513672"/>
      <use xlink:href="#DejaVuSans-74" x="431.892578"/>
      <use xlink:href="#DejaVuSans-69" x="471.101562"/>
      <use xlink:href="#DejaVuSans-61" x="498.884766"/>
      <use xlink:href="#DejaVuSans-6c" x="560.164062"/>
     </g>
    </g>
    <g id="line2d_21">
     <path d="M 63 94.294687 
L 73 94.294687 
L 83 94.294687 
" style="fill: none; stroke: #2ca02c; stroke-width: 2; stroke-linecap: square"/>
    </g>
    <g id="text_16">
     <!-- exponential_derivative -->
     <g transform="translate(91 97.794687) scale(0.1 -0.1)">
      <defs>
       <path id="DejaVuSans-5f" d="M 3263 -1063 
L 3263 -1509 
L -63 -1509 
L -63 -1063 
L 3263 -1063 
z
" transform="scale(0.015625)"/>
       <path id="DejaVuSans-64" d="M 2906 2969 
L 2906 4863 
L 3481 4863 
L 3481 0 
L 2906 0 
L 2906 525 
Q 2725 213 2448 61 
Q 2172 -91 1784 -91 
Q 1150 -91 751 415 
Q 353 922 353 1747 
Q 353 2572 751 3078 
Q 1150 3584 1784 3584 
Q 2172 3584 2448 3432 
Q 2725 3281 2906 2969 
z
M 947 1747 
Q 947 1113 1208 752 
Q 1469 391 1925 391 
Q 2381 391 2643 752 
Q 2906 1113 2906 1747 
Q 2906 2381 2643 2742 
Q 2381 3103 1925 3103 
Q 1469 3103 1208 2742 
Q 947 2381 947 1747 
z
" transform="scale(0.015625)"/>
       <path id="DejaVuSans-76" d="M 191 3500 
L 800 3500 
L 1894 563 
L 2988 3500 
L 3597 3500 
L 2284 0 
L 1503 0 
L 191 3500 
z
" transform="scale(0.015625)"/>
      </defs>
      <use xlink:href="#DejaVuSans-65"/>
      <use xlink:href="#DejaVuSans-78" x="59.773438"/>
      <use xlink:href="#DejaVuSans-70" x="118.953125"/>
      <use xlink:href="#DejaVuSans-6f" x="182.429688"/>
      <use xlink:href="#DejaVuSans-6e" x="243.611328"/>
      <use xlink:href="#DejaVuSans-65" x="306.990234"/>
      <use xlink:href="#DejaVuSans-6e" x="368.513672"/>
      <use xlink:href="#DejaVuSans-74" x="431.892578"/>
      <use xlink:href="#DejaVuSans-69" x="471.101562"/>
      <use xlink:href="#DejaVuSans-61" x="498.884766"/>
      <use xlink:href="#DejaVuSans-6c" x="560.164062"/>
      <use xlink:href="#DejaVuSans-5f" x="587.947266"/>
      <use xlink:href="#DejaVuSans-64" x="637.947266"/>
      <use xlink:href="#DejaVuSans-65" x="701.423828"/>
      <use xlink:href="#DejaVuSans-72" x="762.947266"/>
      <use xlink:href="#DejaVuSans-69" x="804.060547"/>
      <use xlink:href="#DejaVuSans-76" x="831.84375"/>
      <use xlink:href="#DejaVuSans-61" x="891.023438"/>
      <use xlink:href="#DejaVuSans-74" x="952.302734"/>
      <use xlink:href="#DejaVuSans-69" x="991.511719"/>
      <use xlink:href="#DejaVuSans-76" x="1019.294922"/>
      <use xlink:href="#DejaVuSans-65" x="1078.474609"/>
     </g>
    </g>
    <g id="line2d_22">
     <path d="M 63 109.250937 
L 73 109.250937 
L 83 109.250937 
" style="fill: none; stroke: #d62728; stroke-width: 2; stroke-linecap: square"/>
    </g>
    <g id="text_17">
     <!-- exponential_derivative_power -->
     <g transform="translate(91 112.750937) scale(0.1 -0.1)">
      <defs>
       <path id="DejaVuSans-77" d="M 269 3500 
L 844 3500 
L 1563 769 
L 2278 3500 
L 2956 3500 
L 3675 769 
L 4391 3500 
L 4966 3500 
L 4050 0 
L 3372 0 
L 2619 2869 
L 1863 0 
L 1184 0 
L 269 3500 
z
" transform="scale(0.015625)"/>
      </defs>
      <use xlink:href="#DejaVuSans-65"/>
      <use xlink:href="#DejaVuSans-78" x="59.773438"/>
      <use xlink:href="#DejaVuSans-70" x="118.953125"/>
      <use xlink:href="#DejaVuSans-6f" x="182.429688"/>
      <use xlink:href="#DejaVuSans-6e" x="243.611328"/>
      <use xlink:href="#DejaVuSans-65" x="306.990234"/>
      <use xlink:href="#DejaVuSans-6e" x="368.513672"/>
      <use xlink:href="#DejaVuSans-74" x="431.892578"/>
      <use xlink:href="#DejaVuSans-69" x="471.101562"/>
      <use xlink:href="#DejaVuSans-61" x="498.884766"/>
      <use xlink:href="#DejaVuSans-6c" x="560.164062"/>
      <use xlink:href="#DejaVuSans-5f" x="587.947266"/>
      <use xlink:href="#DejaVuSans-64" x="637.947266"/>
      <use xlink:href="#DejaVuSans-65" x="701.423828"/>
      <use xlink:href="#DejaVuSans-72" x="762.947266"/>
      <use xlink:href="#DejaVuSans-69" x="804.060547"/>
      <use xlink:href="#DejaVuSans-76" x="831.84375"/>
      <use xlink:href="#DejaVuSans-61" x="891.023438"/>
      <use xlink:href="#DejaVuSans-74" x="952.302734"/>
      <use xlink:href="#DejaVuSans-69" x="991.511719"/>
      <use xlink:href="#DejaVuSans-76" x="1019.294922"/>
      <use xlink:href="#DejaVuSans-65" x="1078.474609"/>
      <use xlink:href="#DejaVuSans-5f" x="1139.998047"/>
      <use xlink:href="#DejaVuSans-70" x="1189.998047"/>
      <use xlink:href="#DejaVuSans-6f" x="1253.474609"/>
      <use xlink:href="#DejaVuSans-77" x="1314.65625"/>
      <use xlink:href="#DejaVuSans-65" x="1396.443359"/>
      <use xlink:href="#DejaVuSans-72" x="1457.966797"/>
     </g>
    </g>
    <g id="line2d_23">
     <path d="M 63 124.207187 
L 73 124.207187 
L 83 124.207187 
" style="fill: none; stroke: #9467bd; stroke-width: 2; stroke-linecap: square"/>
    </g>
    <g id="text_18">
     <!-- certain_range_only -->
     <g transform="translate(91 127.707187) scale(0.1 -0.1)">
      <defs>
       <path id="DejaVuSans-63" d="M 3122 3366 
L 3122 2828 
Q 2878 2963 2633 3030 
Q 2388 3097 2138 3097 
Q 1578 3097 1268 2742 
Q 959 2388 959 1747 
Q 959 1106 1268 751 
Q 1578 397 2138 397 
Q 2388 397 2633 464 
Q 2878 531 3122 666 
L 3122 134 
Q 2881 22 2623 -34 
Q 2366 -91 2075 -91 
Q 1284 -91 818 406 
Q 353 903 353 1747 
Q 353 2603 823 3093 
Q 1294 3584 2113 3584 
Q 2378 3584 2631 3529 
Q 2884 3475 3122 3366 
z
" transform="scale(0.015625)"/>
       <path id="DejaVuSans-67" d="M 2906 1791 
Q 2906 2416 2648 2759 
Q 2391 3103 1925 3103 
Q 1463 3103 1205 2759 
Q 947 2416 947 1791 
Q 947 1169 1205 825 
Q 1463 481 1925 481 
Q 2391 481 2648 825 
Q 2906 1169 2906 1791 
z
M 3481 434 
Q 3481 -459 3084 -895 
Q 2688 -1331 1869 -1331 
Q 1566 -1331 1297 -1286 
Q 1028 -1241 775 -1147 
L 775 -588 
Q 1028 -725 1275 -790 
Q 1522 -856 1778 -856 
Q 2344 -856 2625 -561 
Q 2906 -266 2906 331 
L 2906 616 
Q 2728 306 2450 153 
Q 2172 0 1784 0 
Q 1141 0 747 490 
Q 353 981 353 1791 
Q 353 2603 747 3093 
Q 1141 3584 1784 3584 
Q 2172 3584 2450 3431 
Q 2728 3278 2906 2969 
L 2906 3500 
L 3481 3500 
L 3481 434 
z
" transform="scale(0.015625)"/>
       <path id="DejaVuSans-79" d="M 2059 -325 
Q 1816 -950 1584 -1140 
Q 1353 -1331 966 -1331 
L 506 -1331 
L 506 -850 
L 844 -850 
Q 1081 -850 1212 -737 
Q 1344 -625 1503 -206 
L 1606 56 
L 191 3500 
L 800 3500 
L 1894 763 
L 2988 3500 
L 3597 3500 
L 2059 -325 
z
" transform="scale(0.015625)"/>
      </defs>
      <use xlink:href="#DejaVuSans-63"/>
      <use xlink:href="#DejaVuSans-65" x="54.980469"/>
      <use xlink:href="#DejaVuSans-72" x="116.503906"/>
      <use xlink:href="#DejaVuSans-74" x="157.617188"/>
      <use xlink:href="#DejaVuSans-61" x="196.826172"/>
      <use xlink:href="#DejaVuSans-69" x="258.105469"/>
      <use xlink:href="#DejaVuSans-6e" x="285.888672"/>
      <use xlink:href="#DejaVuSans-5f" x="349.267578"/>
      <use xlink:href="#DejaVuSans-72" x="399.267578"/>
      <use xlink:href="#DejaVuSans-61" x="440.380859"/>
      <use xlink:href="#DejaVuSans-6e" x="501.660156"/>
      <use xlink:href="#DejaVuSans-67" x="565.039062"/>
      <use xlink:href="#DejaVuSans-65" x="628.515625"/>
      <use xlink:href="#DejaVuSans-5f" x="690.039062"/>
      <use xlink:href="#DejaVuSans-6f" x="740.039062"/>
      <use xlink:href="#DejaVuSans-6e" x="801.220703"/>
      <use xlink:href="#DejaVuSans-6c" x="864.599609"/>
      <use xlink:href="#DejaVuSans-79" x="892.382812"/>
     </g>
    </g>
   </g>
  </g>
 </g>
 <defs>
  <clipPath id="p282e841b40">
   <rect x="54" y="51.84" width="334.8" height="332.64"/>
  </clipPath>
 </defs>
</svg>
