<?xml version="1.0" encoding="utf-8" standalone="no"?>
<!DOCTYPE svg PUBLIC "-//W3C//DTD SVG 1.1//EN"
  "http://www.w3.org/Graphics/SVG/1.1/DTD/svg11.dtd">
<svg xmlns:xlink="http://www.w3.org/1999/xlink" width="460.8pt" height="345.6pt" viewBox="0 0 460.8 345.6" xmlns="http://www.w3.org/2000/svg" version="1.1">
 <metadata>
  <rdf:RDF xmlns:dc="http://purl.org/dc/elements/1.1/" xmlns:cc="http://creativecommons.org/ns#" xmlns:rdf="http://www.w3.org/1999/02/22-rdf-syntax-ns#">
   <cc:Work>
    <dc:type rdf:resource="http://purl.org/dc/dcmitype/StillImage"/>
    <dc:date>2024-03-29T17:23:09.405407</dc:date>
    <dc:format>image/svg+xml</dc:format>
    <dc:creator>
     <cc:Agent>
      <dc:title>Matplotlib v3.8.3, https://matplotlib.org/</dc:title>
     </cc:Agent>
    </dc:creator>
   </cc:Work>
  </rdf:RDF>
 </metadata>
 <defs>
  <style type="text/css">*{stroke-linejoin: round; stroke-linecap: butt}</style>
 </defs>
 <g id="figure_1">
  <g id="patch_1">
   <path d="M 0 345.6 
L 460.8 345.6 
L 460.8 0 
L 0 0 
z
" style="fill: #ffffff"/>
  </g>
  <g id="axes_1">
   <g id="patch_2">
    <path d="M 57.6 307.584 
L 414.72 307.584 
L 414.72 41.472 
L 57.6 41.472 
z
" style="fill: #ffffff"/>
   </g>
   <g id="matplotlib.axis_1">
    <g id="xtick_1">
     <g id="line2d_1">
      <defs>
       <path id="m7ff7176661" d="M 0 0 
L 0 3.5 
" style="stroke: #000000; stroke-width: 0.8"/>
      </defs>
      <g>
       <use xlink:href="#m7ff7176661" x="82.942931" y="307.584" style="stroke: #000000; stroke-width: 0.8"/>
      </g>
     </g>
     <g id="text_1">
      <!-- 0.25 -->
      <g transform="translate(71.810119 322.182437) scale(0.1 -0.1)">
       <defs>
        <path id="DejaVuSans-30" d="M 2034 4250 
Q 1547 4250 1301 3770 
Q 1056 3291 1056 2328 
Q 1056 1369 1301 889 
Q 1547 409 2034 409 
Q 2525 409 2770 889 
Q 3016 1369 3016 2328 
Q 3016 3291 2770 3770 
Q 2525 4250 2034 4250 
z
M 2034 4750 
Q 2819 4750 3233 4129 
Q 3647 3509 3647 2328 
Q 3647 1150 3233 529 
Q 2819 -91 2034 -91 
Q 1250 -91 836 529 
Q 422 1150 422 2328 
Q 422 3509 836 4129 
Q 1250 4750 2034 4750 
z
" transform="scale(0.015625)"/>
        <path id="DejaVuSans-2e" d="M 684 794 
L 1344 794 
L 1344 0 
L 684 0 
L 684 794 
z
" transform="scale(0.015625)"/>
        <path id="DejaVuSans-32" d="M 1228 531 
L 3431 531 
L 3431 0 
L 469 0 
L 469 531 
Q 828 903 1448 1529 
Q 2069 2156 2228 2338 
Q 2531 2678 2651 2914 
Q 2772 3150 2772 3378 
Q 2772 3750 2511 3984 
Q 2250 4219 1831 4219 
Q 1534 4219 1204 4116 
Q 875 4013 500 3803 
L 500 4441 
Q 881 4594 1212 4672 
Q 1544 4750 1819 4750 
Q 2544 4750 2975 4387 
Q 3406 4025 3406 3419 
Q 3406 3131 3298 2873 
Q 3191 2616 2906 2266 
Q 2828 2175 2409 1742 
Q 1991 1309 1228 531 
z
" transform="scale(0.015625)"/>
        <path id="DejaVuSans-35" d="M 691 4666 
L 3169 4666 
L 3169 4134 
L 1269 4134 
L 1269 2991 
Q 1406 3038 1543 3061 
Q 1681 3084 1819 3084 
Q 2600 3084 3056 2656 
Q 3513 2228 3513 1497 
Q 3513 744 3044 326 
Q 2575 -91 1722 -91 
Q 1428 -91 1123 -41 
Q 819 9 494 109 
L 494 744 
Q 775 591 1075 516 
Q 1375 441 1709 441 
Q 2250 441 2565 725 
Q 2881 1009 2881 1497 
Q 2881 1984 2565 2268 
Q 2250 2553 1709 2553 
Q 1456 2553 1204 2497 
Q 953 2441 691 2322 
L 691 4666 
z
" transform="scale(0.015625)"/>
       </defs>
       <use xlink:href="#DejaVuSans-30"/>
       <use xlink:href="#DejaVuSans-2e" x="63.623047"/>
       <use xlink:href="#DejaVuSans-32" x="95.410156"/>
       <use xlink:href="#DejaVuSans-35" x="159.033203"/>
      </g>
     </g>
    </g>
    <g id="xtick_2">
     <g id="line2d_2">
      <g>
       <use xlink:href="#m7ff7176661" x="128.493952" y="307.584" style="stroke: #000000; stroke-width: 0.8"/>
      </g>
     </g>
     <g id="text_2">
      <!-- 0.50 -->
      <g transform="translate(117.361139 322.182437) scale(0.1 -0.1)">
       <use xlink:href="#DejaVuSans-30"/>
       <use xlink:href="#DejaVuSans-2e" x="63.623047"/>
       <use xlink:href="#DejaVuSans-35" x="95.410156"/>
       <use xlink:href="#DejaVuSans-30" x="159.033203"/>
      </g>
     </g>
    </g>
    <g id="xtick_3">
     <g id="line2d_3">
      <g>
       <use xlink:href="#m7ff7176661" x="174.044972" y="307.584" style="stroke: #000000; stroke-width: 0.8"/>
      </g>
     </g>
     <g id="text_3">
      <!-- 0.75 -->
      <g transform="translate(162.91216 322.182437) scale(0.1 -0.1)">
       <defs>
        <path id="DejaVuSans-37" d="M 525 4666 
L 3525 4666 
L 3525 4397 
L 1831 0 
L 1172 0 
L 2766 4134 
L 525 4134 
L 525 4666 
z
" transform="scale(0.015625)"/>
       </defs>
       <use xlink:href="#DejaVuSans-30"/>
       <use xlink:href="#DejaVuSans-2e" x="63.623047"/>
       <use xlink:href="#DejaVuSans-37" x="95.410156"/>
       <use xlink:href="#DejaVuSans-35" x="159.033203"/>
      </g>
     </g>
    </g>
    <g id="xtick_4">
     <g id="line2d_4">
      <g>
       <use xlink:href="#m7ff7176661" x="219.595993" y="307.584" style="stroke: #000000; stroke-width: 0.8"/>
      </g>
     </g>
     <g id="text_4">
      <!-- 1.00 -->
      <g transform="translate(208.46318 322.182437) scale(0.1 -0.1)">
       <defs>
        <path id="DejaVuSans-31" d="M 794 531 
L 1825 531 
L 1825 4091 
L 703 3866 
L 703 4441 
L 1819 4666 
L 2450 4666 
L 2450 531 
L 3481 531 
L 3481 0 
L 794 0 
L 794 531 
z
" transform="scale(0.015625)"/>
       </defs>
       <use xlink:href="#DejaVuSans-31"/>
       <use xlink:href="#DejaVuSans-2e" x="63.623047"/>
       <use xlink:href="#DejaVuSans-30" x="95.410156"/>
       <use xlink:href="#DejaVuSans-30" x="159.033203"/>
      </g>
     </g>
    </g>
    <g id="xtick_5">
     <g id="line2d_5">
      <g>
       <use xlink:href="#m7ff7176661" x="265.147013" y="307.584" style="stroke: #000000; stroke-width: 0.8"/>
      </g>
     </g>
     <g id="text_5">
      <!-- 1.25 -->
      <g transform="translate(254.0142 322.182437) scale(0.1 -0.1)">
       <use xlink:href="#DejaVuSans-31"/>
       <use xlink:href="#DejaVuSans-2e" x="63.623047"/>
       <use xlink:href="#DejaVuSans-32" x="95.410156"/>
       <use xlink:href="#DejaVuSans-35" x="159.033203"/>
      </g>
     </g>
    </g>
    <g id="xtick_6">
     <g id="line2d_6">
      <g>
       <use xlink:href="#m7ff7176661" x="310.698033" y="307.584" style="stroke: #000000; stroke-width: 0.8"/>
      </g>
     </g>
     <g id="text_6">
      <!-- 1.50 -->
      <g transform="translate(299.565221 322.182437) scale(0.1 -0.1)">
       <use xlink:href="#DejaVuSans-31"/>
       <use xlink:href="#DejaVuSans-2e" x="63.623047"/>
       <use xlink:href="#DejaVuSans-35" x="95.410156"/>
       <use xlink:href="#DejaVuSans-30" x="159.033203"/>
      </g>
     </g>
    </g>
    <g id="xtick_7">
     <g id="line2d_7">
      <g>
       <use xlink:href="#m7ff7176661" x="356.249054" y="307.584" style="stroke: #000000; stroke-width: 0.8"/>
      </g>
     </g>
     <g id="text_7">
      <!-- 1.75 -->
      <g transform="translate(345.116241 322.182437) scale(0.1 -0.1)">
       <use xlink:href="#DejaVuSans-31"/>
       <use xlink:href="#DejaVuSans-2e" x="63.623047"/>
       <use xlink:href="#DejaVuSans-37" x="95.410156"/>
       <use xlink:href="#DejaVuSans-35" x="159.033203"/>
      </g>
     </g>
    </g>
    <g id="xtick_8">
     <g id="line2d_8">
      <g>
       <use xlink:href="#m7ff7176661" x="401.800074" y="307.584" style="stroke: #000000; stroke-width: 0.8"/>
      </g>
     </g>
     <g id="text_8">
      <!-- 2.00 -->
      <g transform="translate(390.667262 322.182437) scale(0.1 -0.1)">
       <use xlink:href="#DejaVuSans-32"/>
       <use xlink:href="#DejaVuSans-2e" x="63.623047"/>
       <use xlink:href="#DejaVuSans-30" x="95.410156"/>
       <use xlink:href="#DejaVuSans-30" x="159.033203"/>
      </g>
     </g>
    </g>
   </g>
   <g id="matplotlib.axis_2">
    <g id="ytick_1">
     <g id="line2d_9">
      <defs>
       <path id="m3f97ef8b45" d="M 0 0 
L -3.5 0 
" style="stroke: #000000; stroke-width: 0.8"/>
      </defs>
      <g>
       <use xlink:href="#m3f97ef8b45" x="57.6" y="303.892308" style="stroke: #000000; stroke-width: 0.8"/>
      </g>
     </g>
     <g id="text_9">
      <!-- 0.06 -->
      <g transform="translate(28.334375 307.691526) scale(0.1 -0.1)">
       <defs>
        <path id="DejaVuSans-36" d="M 2113 2584 
Q 1688 2584 1439 2293 
Q 1191 2003 1191 1497 
Q 1191 994 1439 701 
Q 1688 409 2113 409 
Q 2538 409 2786 701 
Q 3034 994 3034 1497 
Q 3034 2003 2786 2293 
Q 2538 2584 2113 2584 
z
M 3366 4563 
L 3366 3988 
Q 3128 4100 2886 4159 
Q 2644 4219 2406 4219 
Q 1781 4219 1451 3797 
Q 1122 3375 1075 2522 
Q 1259 2794 1537 2939 
Q 1816 3084 2150 3084 
Q 2853 3084 3261 2657 
Q 3669 2231 3669 1497 
Q 3669 778 3244 343 
Q 2819 -91 2113 -91 
Q 1303 -91 875 529 
Q 447 1150 447 2328 
Q 447 3434 972 4092 
Q 1497 4750 2381 4750 
Q 2619 4750 2861 4703 
Q 3103 4656 3366 4563 
z
" transform="scale(0.015625)"/>
       </defs>
       <use xlink:href="#DejaVuSans-30"/>
       <use xlink:href="#DejaVuSans-2e" x="63.623047"/>
       <use xlink:href="#DejaVuSans-30" x="95.410156"/>
       <use xlink:href="#DejaVuSans-36" x="159.033203"/>
      </g>
     </g>
    </g>
    <g id="ytick_2">
     <g id="line2d_10">
      <g>
       <use xlink:href="#m3f97ef8b45" x="57.6" y="254.06731" style="stroke: #000000; stroke-width: 0.8"/>
      </g>
     </g>
     <g id="text_10">
      <!-- 0.08 -->
      <g transform="translate(28.334375 257.866529) scale(0.1 -0.1)">
       <defs>
        <path id="DejaVuSans-38" d="M 2034 2216 
Q 1584 2216 1326 1975 
Q 1069 1734 1069 1313 
Q 1069 891 1326 650 
Q 1584 409 2034 409 
Q 2484 409 2743 651 
Q 3003 894 3003 1313 
Q 3003 1734 2745 1975 
Q 2488 2216 2034 2216 
z
M 1403 2484 
Q 997 2584 770 2862 
Q 544 3141 544 3541 
Q 544 4100 942 4425 
Q 1341 4750 2034 4750 
Q 2731 4750 3128 4425 
Q 3525 4100 3525 3541 
Q 3525 3141 3298 2862 
Q 3072 2584 2669 2484 
Q 3125 2378 3379 2068 
Q 3634 1759 3634 1313 
Q 3634 634 3220 271 
Q 2806 -91 2034 -91 
Q 1263 -91 848 271 
Q 434 634 434 1313 
Q 434 1759 690 2068 
Q 947 2378 1403 2484 
z
M 1172 3481 
Q 1172 3119 1398 2916 
Q 1625 2713 2034 2713 
Q 2441 2713 2670 2916 
Q 2900 3119 2900 3481 
Q 2900 3844 2670 4047 
Q 2441 4250 2034 4250 
Q 1625 4250 1398 4047 
Q 1172 3844 1172 3481 
z
" transform="scale(0.015625)"/>
       </defs>
       <use xlink:href="#DejaVuSans-30"/>
       <use xlink:href="#DejaVuSans-2e" x="63.623047"/>
       <use xlink:href="#DejaVuSans-30" x="95.410156"/>
       <use xlink:href="#DejaVuSans-38" x="159.033203"/>
      </g>
     </g>
    </g>
    <g id="ytick_3">
     <g id="line2d_11">
      <g>
       <use xlink:href="#m3f97ef8b45" x="57.6" y="204.242313" style="stroke: #000000; stroke-width: 0.8"/>
      </g>
     </g>
     <g id="text_11">
      <!-- 0.10 -->
      <g transform="translate(28.334375 208.041532) scale(0.1 -0.1)">
       <use xlink:href="#DejaVuSans-30"/>
       <use xlink:href="#DejaVuSans-2e" x="63.623047"/>
       <use xlink:href="#DejaVuSans-31" x="95.410156"/>
       <use xlink:href="#DejaVuSans-30" x="159.033203"/>
      </g>
     </g>
    </g>
    <g id="ytick_4">
     <g id="line2d_12">
      <g>
       <use xlink:href="#m3f97ef8b45" x="57.6" y="154.417316" style="stroke: #000000; stroke-width: 0.8"/>
      </g>
     </g>
     <g id="text_12">
      <!-- 0.12 -->
      <g transform="translate(28.334375 158.216535) scale(0.1 -0.1)">
       <use xlink:href="#DejaVuSans-30"/>
       <use xlink:href="#DejaVuSans-2e" x="63.623047"/>
       <use xlink:href="#DejaVuSans-31" x="95.410156"/>
       <use xlink:href="#DejaVuSans-32" x="159.033203"/>
      </g>
     </g>
    </g>
    <g id="ytick_5">
     <g id="line2d_13">
      <g>
       <use xlink:href="#m3f97ef8b45" x="57.6" y="104.592319" style="stroke: #000000; stroke-width: 0.8"/>
      </g>
     </g>
     <g id="text_13">
      <!-- 0.14 -->
      <g transform="translate(28.334375 108.391538) scale(0.1 -0.1)">
       <defs>
        <path id="DejaVuSans-34" d="M 2419 4116 
L 825 1625 
L 2419 1625 
L 2419 4116 
z
M 2253 4666 
L 3047 4666 
L 3047 1625 
L 3713 1625 
L 3713 1100 
L 3047 1100 
L 3047 0 
L 2419 0 
L 2419 1100 
L 313 1100 
L 313 1709 
L 2253 4666 
z
" transform="scale(0.015625)"/>
       </defs>
       <use xlink:href="#DejaVuSans-30"/>
       <use xlink:href="#DejaVuSans-2e" x="63.623047"/>
       <use xlink:href="#DejaVuSans-31" x="95.410156"/>
       <use xlink:href="#DejaVuSans-34" x="159.033203"/>
      </g>
     </g>
    </g>
    <g id="ytick_6">
     <g id="line2d_14">
      <g>
       <use xlink:href="#m3f97ef8b45" x="57.6" y="54.767322" style="stroke: #000000; stroke-width: 0.8"/>
      </g>
     </g>
     <g id="text_14">
      <!-- 0.16 -->
      <g transform="translate(28.334375 58.566541) scale(0.1 -0.1)">
       <use xlink:href="#DejaVuSans-30"/>
       <use xlink:href="#DejaVuSans-2e" x="63.623047"/>
       <use xlink:href="#DejaVuSans-31" x="95.410156"/>
       <use xlink:href="#DejaVuSans-36" x="159.033203"/>
      </g>
     </g>
    </g>
   </g>
   <g id="line2d_15">
    <path d="M 57.6 224.295534 
L 414.72 224.295534 
" clip-path="url(#p1fd5d2d40c)" style="fill: none; stroke: #1f77b4; stroke-width: 1.5; stroke-linecap: square"/>
   </g>
   <g id="line2d_16">
    <path d="M 73.832727 101.592601 
L 77.145529 121.286655 
L 80.45833 162.199396 
L 83.771132 158.529031 
L 87.083933 160.294389 
L 90.396735 179.664796 
L 93.709536 191.714347 
L 97.022338 192.472193 
L 100.335139 198.30346 
L 103.647941 210.549322 
L 106.960742 221.343867 
L 110.273544 208.344302 
L 113.586345 212.800792 
L 116.899147 222.523381 
L 120.211948 211.363096 
L 123.52475 229.335757 
L 126.837551 225.08273 
L 130.150353 233.007651 
L 133.463154 228.003917 
L 136.775955 231.622054 
L 140.088757 238.819768 
L 143.401558 227.640656 
L 146.71436 226.663869 
L 150.027161 238.108163 
L 153.339963 226.810173 
L 156.652764 243.317829 
L 159.965566 229.618744 
L 163.278367 242.569928 
L 166.591169 247.045414 
L 169.90397 239.424377 
L 173.216772 246.102992 
L 176.529573 248.725194 
L 179.842375 247.534053 
L 183.155176 241.104508 
L 186.467978 245.3377 
L 189.780779 247.715119 
L 193.093581 245.763845 
L 196.406382 236.649121 
L 199.719184 246.6923 
L 203.031985 246.956177 
L 206.344787 240.013358 
L 209.657588 250.866584 
L 212.97039 233.629953 
L 216.283191 240.645374 
L 219.595993 237.01755 
L 222.908794 240.808507 
L 226.221596 249.526222 
L 229.534397 246.910182 
L 232.847199 254.81915 
L 236.16 247.877088 
L 239.472801 246.041398 
L 242.785603 246.12772 
L 246.098404 246.690245 
L 249.411206 250.581632 
L 252.724007 247.272089 
L 256.036809 255.638408 
L 259.34961 249.971803 
L 262.662412 252.586353 
L 265.975213 250.619263 
L 269.288015 248.088446 
L 272.600816 248.922161 
L 275.913618 238.651052 
L 279.226419 239.273614 
L 282.539221 249.726462 
L 285.852022 249.675097 
L 289.164824 237.286741 
L 292.477625 250.976103 
L 295.790427 248.377145 
L 299.103228 245.942042 
L 302.41603 233.664016 
L 305.728831 236.878723 
L 309.041633 238.131591 
L 312.354434 251.324404 
L 315.667236 237.981253 
L 318.980037 242.56867 
L 322.292839 237.661554 
L 325.60564 250.673153 
L 328.918442 255.904928 
L 332.231243 245.615528 
L 335.544045 244.943485 
L 338.856846 245.881875 
L 342.169647 246.219439 
L 345.482449 245.65598 
L 348.79525 242.766679 
L 352.108052 248.161629 
L 355.420853 245.832525 
L 358.733655 258.4899 
L 362.046456 242.586951 
L 365.359258 244.857196 
L 368.672059 249.563217 
L 371.984861 240.76955 
L 375.297662 246.521035 
L 378.610464 244.322002 
L 381.923265 249.437208 
L 385.236067 242.222166 
L 388.548868 237.525061 
L 391.86167 241.564942 
L 395.174471 239.267928 
L 398.487273 250.05836 
" clip-path="url(#p1fd5d2d40c)" style="fill: none; stroke: #ff7f0e; stroke-width: 1.5; stroke-linecap: square"/>
   </g>
   <g id="line2d_17">
    <path d="M 73.832727 231.630097 
L 77.145529 220.968969 
L 80.45833 240.0312 
L 83.771132 237.854147 
L 87.083933 250.854538 
L 90.396735 253.439141 
L 93.709536 263.139335 
L 97.022338 250.272531 
L 100.335139 258.19825 
L 103.647941 255.547619 
L 106.960742 259.922704 
L 110.273544 262.061303 
L 113.586345 264.285424 
L 116.899147 263.865804 
L 120.211948 253.360831 
L 123.52475 266.620139 
L 126.837551 262.300703 
L 130.150353 253.954837 
L 133.463154 267.996371 
L 136.775955 252.698729 
L 140.088757 261.526427 
L 143.401558 256.321481 
L 146.71436 263.815498 
L 150.027161 262.428038 
L 153.339963 261.129441 
L 156.652764 256.850387 
L 159.965566 248.457271 
L 163.278367 263.722371 
L 166.591169 262.986128 
L 169.90397 249.910904 
L 173.216772 262.272318 
L 176.529573 260.306241 
L 179.842375 253.261442 
L 183.155176 261.002013 
L 186.467978 252.540386 
L 189.780779 259.379637 
L 193.093581 258.768011 
L 196.406382 259.751874 
L 199.719184 250.574665 
L 203.031985 254.949152 
L 206.344787 256.139854 
L 209.657588 247.35064 
L 212.97039 245.843945 
L 216.283191 256.491037 
L 219.595993 258.722449 
L 222.908794 242.315699 
L 226.221596 246.760401 
L 229.534397 247.556541 
L 232.847199 250.582165 
L 236.16 247.881787 
L 239.472801 236.09063 
L 242.785603 250.452556 
L 246.098404 239.528655 
L 249.411206 241.345563 
L 252.724007 239.171383 
L 256.036809 240.673648 
L 259.34961 242.841592 
L 262.662412 238.436141 
L 265.975213 229.820477 
L 269.288015 242.38743 
L 272.600816 239.824949 
L 275.913618 230.478338 
L 279.226419 227.907344 
L 282.539221 244.682859 
L 285.852022 234.346256 
L 289.164824 242.412302 
L 292.477625 239.606768 
L 295.790427 236.64685 
L 299.103228 239.202804 
L 302.41603 236.090442 
L 305.728831 235.803717 
L 309.041633 238.740805 
L 312.354434 238.663828 
L 315.667236 229.864879 
L 318.980037 240.057915 
L 322.292839 237.857969 
L 325.60564 232.908688 
L 328.918442 244.801517 
L 332.231243 238.101919 
L 335.544045 229.521009 
L 338.856846 232.3916 
L 342.169647 231.440062 
L 345.482449 228.916833 
L 348.79525 217.424134 
L 352.108052 222.424092 
L 355.420853 220.608588 
L 358.733655 222.484198 
L 362.046456 226.638743 
L 365.359258 231.245921 
L 368.672059 229.695519 
L 371.984861 233.551524 
L 375.297662 230.623052 
L 378.610464 227.008943 
L 381.923265 230.741235 
L 385.236067 217.435746 
L 388.548868 214.608598 
L 391.86167 223.185028 
L 395.174471 219.306378 
L 398.487273 227.520341 
" clip-path="url(#p1fd5d2d40c)" style="fill: none; stroke: #2ca02c; stroke-width: 1.5; stroke-linecap: square"/>
   </g>
   <g id="line2d_18">
    <path d="M 73.832727 56.938442 
L 77.145529 98.738242 
L 80.45833 152.086236 
L 83.771132 153.943406 
L 87.083933 179.170091 
L 90.396735 184.659396 
L 93.709536 199.750314 
L 97.022338 226.170023 
L 100.335139 215.614519 
L 103.647941 220.522872 
L 106.960742 238.111104 
L 110.273544 239.46633 
L 113.586345 250.194302 
L 116.899147 255.463448 
L 120.211948 250.497991 
L 123.52475 249.803892 
L 126.837551 265.61568 
L 130.150353 263.603359 
L 133.463154 274.459331 
L 136.775955 272.213112 
L 140.088757 265.768074 
L 143.401558 278.402902 
L 146.71436 276.424017 
L 150.027161 278.297358 
L 153.339963 275.193796 
L 156.652764 275.314751 
L 159.965566 280.40255 
L 163.278367 273.520167 
L 166.591169 276.749736 
L 169.90397 277.828631 
L 173.216772 280.651228 
L 176.529573 286.062753 
L 179.842375 282.217751 
L 183.155176 282.323357 
L 186.467978 284.901123 
L 189.780779 288.52717 
L 193.093581 274.937176 
L 196.406382 284.902023 
L 199.719184 279.124752 
L 203.031985 277.188169 
L 206.344787 288.902296 
L 209.657588 275.03055 
L 212.97039 280.710292 
L 216.283191 285.323213 
L 219.595993 283.856425 
L 222.908794 276.005905 
L 226.221596 282.195564 
L 229.534397 279.309975 
L 232.847199 279.393048 
L 236.16 266.573564 
L 239.472801 273.386679 
L 242.785603 269.752316 
L 246.098404 273.333733 
L 249.411206 271.537715 
L 252.724007 270.714649 
L 256.036809 274.674415 
L 259.34961 275.40477 
L 262.662412 261.504919 
L 265.975213 260.764565 
L 269.288015 274.628164 
L 272.600816 258.270387 
L 275.913618 260.128505 
L 279.226419 260.810552 
L 282.539221 268.056067 
L 285.852022 253.815939 
L 289.164824 257.140238 
L 292.477625 258.293623 
L 295.790427 250.394256 
L 299.103228 253.635319 
L 302.41603 256.895498 
L 305.728831 254.676507 
L 309.041633 254.372235 
L 312.354434 250.041997 
L 315.667236 239.469567 
L 318.980037 245.215054 
L 322.292839 242.765565 
L 325.60564 235.338936 
L 328.918442 239.869694 
L 332.231243 246.301845 
L 335.544045 236.94366 
L 338.856846 229.652623 
L 342.169647 241.237852 
L 345.482449 230.605103 
L 348.79525 236.629712 
L 352.108052 237.86138 
L 355.420853 221.36441 
L 358.733655 231.332898 
L 362.046456 225.295129 
L 365.359258 229.930776 
L 368.672059 225.549731 
L 371.984861 224.906985 
L 375.297662 222.448037 
L 378.610464 221.319201 
L 381.923265 216.729546 
L 385.236067 214.637822 
L 388.548868 219.441318 
L 391.86167 206.934772 
L 395.174471 211.008938 
L 398.487273 217.577468 
" clip-path="url(#p1fd5d2d40c)" style="fill: none; stroke: #d62728; stroke-width: 1.5; stroke-linecap: square"/>
   </g>
   <g id="line2d_19">
    <path d="M 73.832727 53.568 
L 77.145529 59.512481 
L 80.45833 112.459126 
L 83.771132 151.219625 
L 87.083933 138.063428 
L 90.396735 180.494514 
L 93.709536 177.225745 
L 97.022338 201.934859 
L 100.335139 211.212588 
L 103.647941 204.410157 
L 106.960742 217.810671 
L 110.273544 224.336901 
L 113.586345 239.153461 
L 116.899147 244.731904 
L 120.211948 244.166685 
L 123.52475 260.18123 
L 126.837551 258.236764 
L 130.150353 269.854511 
L 133.463154 266.789049 
L 136.775955 263.350098 
L 140.088757 268.183765 
L 143.401558 268.378529 
L 146.71436 271.693245 
L 150.027161 288.293143 
L 153.339963 286.552809 
L 156.652764 276.637794 
L 159.965566 282.218987 
L 163.278367 277.927332 
L 166.591169 279.5336 
L 169.90397 289.586922 
L 173.216772 287.473445 
L 176.529573 275.668409 
L 179.842375 283.670657 
L 183.155176 290.584907 
L 186.467978 295.488 
L 189.780779 288.492068 
L 193.093581 286.5468 
L 196.406382 285.914754 
L 199.719184 276.361855 
L 203.031985 289.330653 
L 206.344787 290.425464 
L 209.657588 285.698221 
L 212.97039 286.271283 
L 216.283191 284.114622 
L 219.595993 280.723873 
L 222.908794 287.02238 
L 226.221596 274.168386 
L 229.534397 292.260163 
L 232.847199 281.328782 
L 236.16 275.592498 
L 239.472801 275.894754 
L 242.785603 276.118591 
L 246.098404 275.520102 
L 249.411206 278.811717 
L 252.724007 281.030093 
L 256.036809 276.99072 
L 259.34961 273.541296 
L 262.662412 270.265121 
L 265.975213 269.994927 
L 269.288015 274.824877 
L 272.600816 272.545581 
L 275.913618 266.921289 
L 279.226419 264.481375 
L 282.539221 266.906698 
L 285.852022 275.526294 
L 289.164824 264.662078 
L 292.477625 271.837119 
L 295.790427 256.069601 
L 299.103228 263.797638 
L 302.41603 265.549209 
L 305.728831 258.898648 
L 309.041633 255.113998 
L 312.354434 254.146898 
L 315.667236 250.138121 
L 318.980037 244.22343 
L 322.292839 250.342922 
L 325.60564 249.13258 
L 328.918442 244.512878 
L 332.231243 240.154338 
L 335.544045 243.892929 
L 338.856846 244.406814 
L 342.169647 232.674164 
L 345.482449 231.40727 
L 348.79525 239.327821 
L 352.108052 239.649625 
L 355.420853 241.438509 
L 358.733655 226.774297 
L 362.046456 225.201082 
L 365.359258 230.573293 
L 368.672059 231.681334 
L 371.984861 201.295985 
L 375.297662 212.015285 
L 378.610464 209.80123 
L 381.923265 205.92284 
L 385.236067 215.287276 
L 388.548868 205.920966 
L 391.86167 196.897237 
L 395.174471 193.560945 
L 398.487273 197.595102 
" clip-path="url(#p1fd5d2d40c)" style="fill: none; stroke: #9467bd; stroke-width: 1.5; stroke-linecap: square"/>
   </g>
   <g id="patch_3">
    <path d="M 57.6 307.584 
L 57.6 41.472 
" style="fill: none; stroke: #000000; stroke-width: 0.8; stroke-linejoin: miter; stroke-linecap: square"/>
   </g>
   <g id="patch_4">
    <path d="M 414.72 307.584 
L 414.72 41.472 
" style="fill: none; stroke: #000000; stroke-width: 0.8; stroke-linejoin: miter; stroke-linecap: square"/>
   </g>
   <g id="patch_5">
    <path d="M 57.6 307.584 
L 414.72 307.584 
" style="fill: none; stroke: #000000; stroke-width: 0.8; stroke-linejoin: miter; stroke-linecap: square"/>
   </g>
   <g id="patch_6">
    <path d="M 57.6 41.472 
L 414.72 41.472 
" style="fill: none; stroke: #000000; stroke-width: 0.8; stroke-linejoin: miter; stroke-linecap: square"/>
   </g>
   <g id="legend_1">
    <g id="patch_7">
     <path d="M 284.205938 108.1845 
L 407.72 108.1845 
Q 409.72 108.1845 409.72 106.1845 
L 409.72 48.472 
Q 409.72 46.472 407.72 46.472 
L 284.205938 46.472 
Q 282.205938 46.472 282.205938 48.472 
L 282.205938 106.1845 
Q 282.205938 108.1845 284.205938 108.1845 
z
" style="fill: #ffffff; opacity: 0.8; stroke: #cccccc; stroke-linejoin: miter"/>
    </g>
    <g id="line2d_20">
     <path d="M 286.205938 54.570438 
L 296.205938 54.570438 
L 306.205938 54.570438 
" style="fill: none; stroke: #ff7f0e; stroke-width: 1.5; stroke-linecap: square"/>
    </g>
    <g id="text_15">
     <!-- exponential -->
     <g transform="translate(314.205938 58.070438) scale(0.1 -0.1)">
      <defs>
       <path id="DejaVuSans-65" d="M 3597 1894 
L 3597 1613 
L 953 1613 
Q 991 1019 1311 708 
Q 1631 397 2203 397 
Q 2534 397 2845 478 
Q 3156 559 3463 722 
L 3463 178 
Q 3153 47 2828 -22 
Q 2503 -91 2169 -91 
Q 1331 -91 842 396 
Q 353 884 353 1716 
Q 353 2575 817 3079 
Q 1281 3584 2069 3584 
Q 2775 3584 3186 3129 
Q 3597 2675 3597 1894 
z
M 3022 2063 
Q 3016 2534 2758 2815 
Q 2500 3097 2075 3097 
Q 1594 3097 1305 2825 
Q 1016 2553 972 2059 
L 3022 2063 
z
" transform="scale(0.015625)"/>
       <path id="DejaVuSans-78" d="M 3513 3500 
L 2247 1797 
L 3578 0 
L 2900 0 
L 1881 1375 
L 863 0 
L 184 0 
L 1544 1831 
L 300 3500 
L 978 3500 
L 1906 2253 
L 2834 3500 
L 3513 3500 
z
" transform="scale(0.015625)"/>
       <path id="DejaVuSans-70" d="M 1159 525 
L 1159 -1331 
L 581 -1331 
L 581 3500 
L 1159 3500 
L 1159 2969 
Q 1341 3281 1617 3432 
Q 1894 3584 2278 3584 
Q 2916 3584 3314 3078 
Q 3713 2572 3713 1747 
Q 3713 922 3314 415 
Q 2916 -91 2278 -91 
Q 1894 -91 1617 61 
Q 1341 213 1159 525 
z
M 3116 1747 
Q 3116 2381 2855 2742 
Q 2594 3103 2138 3103 
Q 1681 3103 1420 2742 
Q 1159 2381 1159 1747 
Q 1159 1113 1420 752 
Q 1681 391 2138 391 
Q 2594 391 2855 752 
Q 3116 1113 3116 1747 
z
" transform="scale(0.015625)"/>
       <path id="DejaVuSans-6f" d="M 1959 3097 
Q 1497 3097 1228 2736 
Q 959 2375 959 1747 
Q 959 1119 1226 758 
Q 1494 397 1959 397 
Q 2419 397 2687 759 
Q 2956 1122 2956 1747 
Q 2956 2369 2687 2733 
Q 2419 3097 1959 3097 
z
M 1959 3584 
Q 2709 3584 3137 3096 
Q 3566 2609 3566 1747 
Q 3566 888 3137 398 
Q 2709 -91 1959 -91 
Q 1206 -91 779 398 
Q 353 888 353 1747 
Q 353 2609 779 3096 
Q 1206 3584 1959 3584 
z
" transform="scale(0.015625)"/>
       <path id="DejaVuSans-6e" d="M 3513 2113 
L 3513 0 
L 2938 0 
L 2938 2094 
Q 2938 2591 2744 2837 
Q 2550 3084 2163 3084 
Q 1697 3084 1428 2787 
Q 1159 2491 1159 1978 
L 1159 0 
L 581 0 
L 581 3500 
L 1159 3500 
L 1159 2956 
Q 1366 3272 1645 3428 
Q 1925 3584 2291 3584 
Q 2894 3584 3203 3211 
Q 3513 2838 3513 2113 
z
" transform="scale(0.015625)"/>
       <path id="DejaVuSans-74" d="M 1172 4494 
L 1172 3500 
L 2356 3500 
L 2356 3053 
L 1172 3053 
L 1172 1153 
Q 1172 725 1289 603 
Q 1406 481 1766 481 
L 2356 481 
L 2356 0 
L 1766 0 
Q 1100 0 847 248 
Q 594 497 594 1153 
L 594 3053 
L 172 3053 
L 172 3500 
L 594 3500 
L 594 4494 
L 1172 4494 
z
" transform="scale(0.015625)"/>
       <path id="DejaVuSans-69" d="M 603 3500 
L 1178 3500 
L 1178 0 
L 603 0 
L 603 3500 
z
M 603 4863 
L 1178 4863 
L 1178 4134 
L 603 4134 
L 603 4863 
z
" transform="scale(0.015625)"/>
       <path id="DejaVuSans-61" d="M 2194 1759 
Q 1497 1759 1228 1600 
Q 959 1441 959 1056 
Q 959 750 1161 570 
Q 1363 391 1709 391 
Q 2188 391 2477 730 
Q 2766 1069 2766 1631 
L 2766 1759 
L 2194 1759 
z
M 3341 1997 
L 3341 0 
L 2766 0 
L 2766 531 
Q 2569 213 2275 61 
Q 1981 -91 1556 -91 
Q 1019 -91 701 211 
Q 384 513 384 1019 
Q 384 1609 779 1909 
Q 1175 2209 1959 2209 
L 2766 2209 
L 2766 2266 
Q 2766 2663 2505 2880 
Q 2244 3097 1772 3097 
Q 1472 3097 1187 3025 
Q 903 2953 641 2809 
L 641 3341 
Q 956 3463 1253 3523 
Q 1550 3584 1831 3584 
Q 2591 3584 2966 3190 
Q 3341 2797 3341 1997 
z
" transform="scale(0.015625)"/>
       <path id="DejaVuSans-6c" d="M 603 4863 
L 1178 4863 
L 1178 0 
L 603 0 
L 603 4863 
z
" transform="scale(0.015625)"/>
      </defs>
      <use xlink:href="#DejaVuSans-65"/>
      <use xlink:href="#DejaVuSans-78" x="59.773438"/>
      <use xlink:href="#DejaVuSans-70" x="118.953125"/>
      <use xlink:href="#DejaVuSans-6f" x="182.429688"/>
      <use xlink:href="#DejaVuSans-6e" x="243.611328"/>
      <use xlink:href="#DejaVuSans-65" x="306.990234"/>
      <use xlink:href="#DejaVuSans-6e" x="368.513672"/>
      <use xlink:href="#DejaVuSans-74" x="431.892578"/>
      <use xlink:href="#DejaVuSans-69" x="471.101562"/>
      <use xlink:href="#DejaVuSans-61" x="498.884766"/>
      <use xlink:href="#DejaVuSans-6c" x="560.164062"/>
     </g>
    </g>
    <g id="line2d_21">
     <path d="M 286.205938 69.248563 
L 296.205938 69.248563 
L 306.205938 69.248563 
" style="fill: none; stroke: #2ca02c; stroke-width: 1.5; stroke-linecap: square"/>
    </g>
    <g id="text_16">
     <!-- derivative -->
     <g transform="translate(314.205938 72.748563) scale(0.1 -0.1)">
      <defs>
       <path id="DejaVuSans-64" d="M 2906 2969 
L 2906 4863 
L 3481 4863 
L 3481 0 
L 2906 0 
L 2906 525 
Q 2725 213 2448 61 
Q 2172 -91 1784 -91 
Q 1150 -91 751 415 
Q 353 922 353 1747 
Q 353 2572 751 3078 
Q 1150 3584 1784 3584 
Q 2172 3584 2448 3432 
Q 2725 3281 2906 2969 
z
M 947 1747 
Q 947 1113 1208 752 
Q 1469 391 1925 391 
Q 2381 391 2643 752 
Q 2906 1113 2906 1747 
Q 2906 2381 2643 2742 
Q 2381 3103 1925 3103 
Q 1469 3103 1208 2742 
Q 947 2381 947 1747 
z
" transform="scale(0.015625)"/>
       <path id="DejaVuSans-72" d="M 2631 2963 
Q 2534 3019 2420 3045 
Q 2306 3072 2169 3072 
Q 1681 3072 1420 2755 
Q 1159 2438 1159 1844 
L 1159 0 
L 581 0 
L 581 3500 
L 1159 3500 
L 1159 2956 
Q 1341 3275 1631 3429 
Q 1922 3584 2338 3584 
Q 2397 3584 2469 3576 
Q 2541 3569 2628 3553 
L 2631 2963 
z
" transform="scale(0.015625)"/>
       <path id="DejaVuSans-76" d="M 191 3500 
L 800 3500 
L 1894 563 
L 2988 3500 
L 3597 3500 
L 2284 0 
L 1503 0 
L 191 3500 
z
" transform="scale(0.015625)"/>
      </defs>
      <use xlink:href="#DejaVuSans-64"/>
      <use xlink:href="#DejaVuSans-65" x="63.476562"/>
      <use xlink:href="#DejaVuSans-72" x="125"/>
      <use xlink:href="#DejaVuSans-69" x="166.113281"/>
      <use xlink:href="#DejaVuSans-76" x="193.896484"/>
      <use xlink:href="#DejaVuSans-61" x="253.076172"/>
      <use xlink:href="#DejaVuSans-74" x="314.355469"/>
      <use xlink:href="#DejaVuSans-69" x="353.564453"/>
      <use xlink:href="#DejaVuSans-76" x="381.347656"/>
      <use xlink:href="#DejaVuSans-65" x="440.527344"/>
     </g>
    </g>
    <g id="line2d_22">
     <path d="M 286.205938 83.926688 
L 296.205938 83.926688 
L 306.205938 83.926688 
" style="fill: none; stroke: #d62728; stroke-width: 1.5; stroke-linecap: square"/>
    </g>
    <g id="text_17">
     <!-- derivative power -->
     <g transform="translate(314.205938 87.426688) scale(0.1 -0.1)">
      <defs>
       <path id="DejaVuSans-20" transform="scale(0.015625)"/>
       <path id="DejaVuSans-77" d="M 269 3500 
L 844 3500 
L 1563 769 
L 2278 3500 
L 2956 3500 
L 3675 769 
L 4391 3500 
L 4966 3500 
L 4050 0 
L 3372 0 
L 2619 2869 
L 1863 0 
L 1184 0 
L 269 3500 
z
" transform="scale(0.015625)"/>
      </defs>
      <use xlink:href="#DejaVuSans-64"/>
      <use xlink:href="#DejaVuSans-65" x="63.476562"/>
      <use xlink:href="#DejaVuSans-72" x="125"/>
      <use xlink:href="#DejaVuSans-69" x="166.113281"/>
      <use xlink:href="#DejaVuSans-76" x="193.896484"/>
      <use xlink:href="#DejaVuSans-61" x="253.076172"/>
      <use xlink:href="#DejaVuSans-74" x="314.355469"/>
      <use xlink:href="#DejaVuSans-69" x="353.564453"/>
      <use xlink:href="#DejaVuSans-76" x="381.347656"/>
      <use xlink:href="#DejaVuSans-65" x="440.527344"/>
      <use xlink:href="#DejaVuSans-20" x="502.050781"/>
      <use xlink:href="#DejaVuSans-70" x="533.837891"/>
      <use xlink:href="#DejaVuSans-6f" x="597.314453"/>
      <use xlink:href="#DejaVuSans-77" x="658.496094"/>
      <use xlink:href="#DejaVuSans-65" x="740.283203"/>
      <use xlink:href="#DejaVuSans-72" x="801.806641"/>
     </g>
    </g>
    <g id="line2d_23">
     <path d="M 286.205938 98.604813 
L 296.205938 98.604813 
L 306.205938 98.604813 
" style="fill: none; stroke: #9467bd; stroke-width: 1.5; stroke-linecap: square"/>
    </g>
    <g id="text_18">
     <!-- only certain range -->
     <g transform="translate(314.205938 102.104813) scale(0.1 -0.1)">
      <defs>
       <path id="DejaVuSans-79" d="M 2059 -325 
Q 1816 -950 1584 -1140 
Q 1353 -1331 966 -1331 
L 506 -1331 
L 506 -850 
L 844 -850 
Q 1081 -850 1212 -737 
Q 1344 -625 1503 -206 
L 1606 56 
L 191 3500 
L 800 3500 
L 1894 763 
L 2988 3500 
L 3597 3500 
L 2059 -325 
z
" transform="scale(0.015625)"/>
       <path id="DejaVuSans-63" d="M 3122 3366 
L 3122 2828 
Q 2878 2963 2633 3030 
Q 2388 3097 2138 3097 
Q 1578 3097 1268 2742 
Q 959 2388 959 1747 
Q 959 1106 1268 751 
Q 1578 397 2138 397 
Q 2388 397 2633 464 
Q 2878 531 3122 666 
L 3122 134 
Q 2881 22 2623 -34 
Q 2366 -91 2075 -91 
Q 1284 -91 818 406 
Q 353 903 353 1747 
Q 353 2603 823 3093 
Q 1294 3584 2113 3584 
Q 2378 3584 2631 3529 
Q 2884 3475 3122 3366 
z
" transform="scale(0.015625)"/>
       <path id="DejaVuSans-67" d="M 2906 1791 
Q 2906 2416 2648 2759 
Q 2391 3103 1925 3103 
Q 1463 3103 1205 2759 
Q 947 2416 947 1791 
Q 947 1169 1205 825 
Q 1463 481 1925 481 
Q 2391 481 2648 825 
Q 2906 1169 2906 1791 
z
M 3481 434 
Q 3481 -459 3084 -895 
Q 2688 -1331 1869 -1331 
Q 1566 -1331 1297 -1286 
Q 1028 -1241 775 -1147 
L 775 -588 
Q 1028 -725 1275 -790 
Q 1522 -856 1778 -856 
Q 2344 -856 2625 -561 
Q 2906 -266 2906 331 
L 2906 616 
Q 2728 306 2450 153 
Q 2172 0 1784 0 
Q 1141 0 747 490 
Q 353 981 353 1791 
Q 353 2603 747 3093 
Q 1141 3584 1784 3584 
Q 2172 3584 2450 3431 
Q 2728 3278 2906 2969 
L 2906 3500 
L 3481 3500 
L 3481 434 
z
" transform="scale(0.015625)"/>
      </defs>
      <use xlink:href="#DejaVuSans-6f"/>
      <use xlink:href="#DejaVuSans-6e" x="61.181641"/>
      <use xlink:href="#DejaVuSans-6c" x="124.560547"/>
      <use xlink:href="#DejaVuSans-79" x="152.34375"/>
      <use xlink:href="#DejaVuSans-20" x="211.523438"/>
      <use xlink:href="#DejaVuSans-63" x="243.310547"/>
      <use xlink:href="#DejaVuSans-65" x="298.291016"/>
      <use xlink:href="#DejaVuSans-72" x="359.814453"/>
      <use xlink:href="#DejaVuSans-74" x="400.927734"/>
      <use xlink:href="#DejaVuSans-61" x="440.136719"/>
      <use xlink:href="#DejaVuSans-69" x="501.416016"/>
      <use xlink:href="#DejaVuSans-6e" x="529.199219"/>
      <use xlink:href="#DejaVuSans-20" x="592.578125"/>
      <use xlink:href="#DejaVuSans-72" x="624.365234"/>
      <use xlink:href="#DejaVuSans-61" x="665.478516"/>
      <use xlink:href="#DejaVuSans-6e" x="726.757812"/>
      <use xlink:href="#DejaVuSans-67" x="790.136719"/>
      <use xlink:href="#DejaVuSans-65" x="853.613281"/>
     </g>
    </g>
   </g>
  </g>
 </g>
 <defs>
  <clipPath id="p1fd5d2d40c">
   <rect x="57.6" y="41.472" width="357.12" height="266.112"/>
  </clipPath>
 </defs>
</svg>
